<?xml version="1.0" encoding="UTF-8" standalone="no"?>
<!-- Created with Inkscape (http://www.inkscape.org/) -->
<svg
   xmlns:dc="http://purl.org/dc/elements/1.1/"
   xmlns:cc="http://web.resource.org/cc/"
   xmlns:rdf="http://www.w3.org/1999/02/22-rdf-syntax-ns#"
   xmlns:svg="http://www.w3.org/2000/svg"
   xmlns="http://www.w3.org/2000/svg"
   xmlns:sodipodi="http://sodipodi.sourceforge.net/DTD/sodipodi-0.dtd"
   xmlns:inkscape="http://www.inkscape.org/namespaces/inkscape"
   width="80"
   height="15"
   id="svg10246"
   sodipodi:version="0.32"
   inkscape:version="0.45+devel"
   version="1.0"
   sodipodi:docname="zero-tiny.svg"
   inkscape:output_extension="org.inkscape.output.svg.inkscape">
  <defs
     id="defs10248">
    <clipPath
       clipPathUnits="userSpaceOnUse"
       id="clipPath3442">
      <rect
         style="fill:#000000;fill-opacity:1;stroke:none;stroke-width:0.92243534;stroke-miterlimit:4;stroke-dasharray:none;stroke-opacity:1"
         id="rect3444"
         width="20.614058"
         height="12.483703"
         x="171.99832"
         y="239.1203" />
    </clipPath>
  </defs>
  <sodipodi:namedview
     id="base"
     pagecolor="#ffffff"
     bordercolor="#666666"
     borderopacity="1.0"
     gridtolerance="10000"
     guidetolerance="10"
     objecttolerance="10"
     inkscape:pageopacity="0.0"
     inkscape:pageshadow="2"
     inkscape:zoom="1.4142136"
     inkscape:cx="63.013979"
     inkscape:cy="14.419264"
     inkscape:document-units="px"
     inkscape:current-layer="BY"
     showguides="false"
     inkscape:guide-bbox="true"
     inkscape:window-width="825"
     inkscape:window-height="711"
     inkscape:window-x="348"
     inkscape:window-y="171">
    <sodipodi:guide
       orientation="horizontal"
       position="15.004772"
       id="guide10269" />
    <sodipodi:guide
       orientation="horizontal"
       position="13.973909"
       id="guide10271" />
  </sodipodi:namedview>
  <metadata
     id="metadata10251">
    <rdf:RDF>
      <cc:Work
         rdf:about="">
        <dc:format>image/svg+xml</dc:format>
        <dc:type
           rdf:resource="http://purl.org/dc/dcmitype/StillImage" />
        <dc:title>CC0 - Tiny Button</dc:title>
        <dc:creator>
          <cc:Agent>
            <dc:title>Alex Roberts</dc:title>
          </cc:Agent>
        </dc:creator>
        <dc:publisher>
          <cc:Agent>
            <dc:title>Creative Commons</dc:title>
          </cc:Agent>
        </dc:publisher>
        <dc:source>http://creativecommons.org/</dc:source>
      </cc:Work>
    </rdf:RDF>
  </metadata>
  <g
     inkscape:label="Layer 1"
     inkscape:groupmode="layer"
     id="layer1">
    <g
       id="BY"
       transform="matrix(0.9375,0,0,0.9375,-307.5,-273.15204)">
      <g
         transform="translate(158,54)"
         id="g3693"
         inkscape:export-filename="/mnt/hgfs/Bov/Documents/Work/2007/cc/projects/zero/cc-zero-tiny.png"
         inkscape:export-xdpi="90"
         inkscape:export-ydpi="90">
        <rect
           y="237.89551"
           x="170.53334"
           height="14.933334"
           width="84.266663"
           id="rect3695"
           style="fill:#ffffff;fill-opacity:1;stroke:#000000;stroke-width:1.06666684;stroke-miterlimit:4;stroke-dasharray:none;stroke-opacity:1" />
        <rect
           style="fill:#000000;fill-opacity:1;stroke:none;stroke-width:0.92243534;stroke-miterlimit:4;stroke-dasharray:none;stroke-opacity:1"
           id="rect3697"
           width="81.066666"
           height="11.733334"
           x="172.13333"
           y="239.4955" />
        <path
           sodipodi:nodetypes="cccscc"
           id="path3699"
           d="M 172.13333,239.49551 L 172.13333,251.22884 L 192.46811,251.22884 C 193.77676,249.51743 194.65989,247.52846 194.65989,245.36217 C 194.65989,243.21034 193.79196,241.19963 192.49936,239.49551 L 172.13333,239.49551 z"
           style="fill:#abb1aa;fill-opacity:1;stroke:none;stroke-width:1;stroke-miterlimit:4;stroke-dasharray:none;stroke-opacity:0.46913578" />
        <g
           clip-path="url(#clipPath3442)"
           transform="matrix(0.9398921,0,0,0.9398921,10.371178,14.748228)"
           id="g3701">
          <path
             style="opacity:1;fill:#ffffff"
             d="M 190.06417,245.36206 C 190.06667,249.25405 186.91326,252.41072 183.02153,252.41323 C 179.12979,252.41572 175.97262,249.26256 175.97036,245.3706 C 175.97036,245.36783 175.97036,245.36507 175.97036,245.36206 C 175.9681,241.47007 179.12126,238.3134 183.013,238.31113 C 186.90524,238.30864 190.06191,241.46181 190.06417,245.3538 C 190.06417,245.35628 190.06417,245.35929 190.06417,245.36206 z"
             rx="22.939548"
             type="arc"
             cy="264.3577"
             ry="22.939548"
             cx="296.35416"
             id="path3703" />
          <path
             style="opacity:1"
             id="path3705"
             d="M 188.74576,239.62226 C 190.30843,241.18492 191.08988,243.09869 191.08988,245.36206 C 191.08988,247.62592 190.32197,249.51913 188.78615,251.04165 C 187.15627,252.64521 185.22995,253.44672 183.00722,253.44672 C 180.81132,253.44672 178.91837,252.65172 177.32887,251.06174 C 175.73912,249.47198 174.94436,247.57226 174.94436,245.36206 C 174.94436,243.15235 175.73912,241.23908 177.32887,239.62226 C 178.87799,238.0591 180.77094,237.27764 183.00722,237.27764 C 185.2706,237.27764 187.18312,238.05909 188.74576,239.62226 z M 178.38093,240.67355 C 177.05978,242.008 176.39945,243.57116 176.39945,245.36429 C 176.39945,247.15694 177.05326,248.70682 178.36062,250.01393 C 179.66822,251.32153 181.22487,251.97509 183.03105,251.97509 C 184.83724,251.97509 186.40716,251.31502 187.74161,249.99412 C 189.0086,248.76725 189.64234,247.22467 189.64234,245.36429 C 189.64234,243.51799 188.99831,241.95084 187.71101,240.66354 C 186.42396,239.37649 184.86406,238.7327 183.03105,238.7327 C 181.19804,238.73271 179.64767,239.37975 178.38093,240.67355 z M 181.85761,244.57559 C 181.65573,244.13545 181.35354,243.91525 180.95051,243.91525 C 180.23802,243.91525 179.8819,244.39501 179.8819,245.35404 C 179.8819,246.31328 180.23802,246.79255 180.95051,246.79255 C 181.421,246.79255 181.75705,246.55908 181.95869,246.09111 L 182.94629,246.61701 C 182.47555,247.45339 181.76934,247.87168 180.82763,247.87168 C 180.10136,247.87168 179.51953,247.64899 179.08265,247.20409 C 178.64502,246.7587 178.42684,246.14477 178.42684,245.36206 C 178.42684,244.59313 178.65204,243.98271 179.10271,243.53056 C 179.55338,243.07838 180.11463,242.8524 180.7875,242.8524 C 181.78288,242.8524 182.49561,243.24465 182.92647,244.02835 L 181.85761,244.57559 z M 186.50398,244.57559 C 186.30184,244.13545 186.00567,243.91525 185.61517,243.91525 C 184.88839,243.91525 184.52474,244.39501 184.52474,245.35404 C 184.52474,246.31328 184.88839,246.79255 185.61517,246.79255 C 186.08642,246.79255 186.41644,246.55908 186.6048,246.09111 L 187.61447,246.61701 C 187.14448,247.45339 186.43926,247.87168 185.49931,247.87168 C 184.77403,247.87168 184.19346,247.64899 183.75683,247.20409 C 183.32096,246.7587 183.10254,246.14477 183.10254,245.36206 C 183.10254,244.59313 183.32422,243.98271 183.76737,243.53056 C 184.21026,243.07838 184.77404,242.8524 185.4592,242.8524 C 186.45282,242.8524 187.16455,243.24465 187.5939,244.02835 L 186.50398,244.57559 z" />
        </g>
      </g>
      <path
         id="path10169"
         d="M 355.82782,296.27369 L 360.9796,296.27369 L 360.9796,297.23638 L 357.69145,301.24002 L 361.07399,301.24002 L 361.07399,302.44235 L 355.73333,302.44235 L 355.73333,301.47965 L 359.02149,297.47603 L 355.82782,297.47603 L 355.82782,296.27369 M 362.21925,296.27369 L 366.48438,296.27369 L 366.48438,297.47603 L 363.79973,297.47603 L 363.79973,298.62461 L 366.32435,298.62461 L 366.32435,299.82695 L 363.79973,299.82695 L 363.79973,301.24002 L 366.5747,301.24002 L 366.5747,302.44235 L 362.21925,302.44235 L 362.21925,296.27369 M 370.21175,299.00891 C 370.54293,299.00891 370.77964,298.94694 370.92197,298.82291 C 371.06698,298.69899 371.13948,298.49518 371.13948,298.21147 C 371.13948,297.93049 371.06698,297.72949 370.92197,297.60826 C 370.77964,297.48703 370.54293,297.42647 370.21175,297.42647 L 369.54677,297.42647 L 369.54677,299.00891 L 370.21175,299.00891 M 369.54677,300.10793 L 369.54677,302.44235 L 367.9663,302.44235 L 367.9663,296.27369 L 370.38012,296.27369 C 371.18742,296.27369 371.7785,296.41003 372.15345,296.68271 C 372.5311,296.95548 372.71996,297.38653 372.71996,297.97594 C 372.71996,298.38365 372.6214,298.7183 372.42437,298.97998 C 372.23004,299.24165 371.93585,299.43445 371.54179,299.55837 C 371.75801,299.60802 371.95095,299.72093 372.12063,299.89722 C 372.293,300.0707 372.46676,300.33517 372.64199,300.69044 L 373.49991,302.44235 L 371.8168,302.44235 L 371.06976,300.90947 C 370.91919,300.60095 370.76593,300.39023 370.60997,300.27732 C 370.45671,300.1644 370.25143,300.10793 369.99424,300.10793 L 369.54677,300.10793 M 377.23544,297.31485 C 376.75377,297.31485 376.3802,297.49394 376.11476,297.85202 C 375.8493,298.21008 375.71662,298.7142 375.71662,299.36418 C 375.71662,300.01155 375.8493,300.51416 376.11476,300.87223 C 376.3802,301.23039 376.75377,301.40938 377.23544,301.40938 C 377.71988,301.40938 378.09475,301.23039 378.3602,300.87223 C 378.62566,300.51416 378.75843,300.01155 378.75843,299.36418 C 378.75843,298.7142 378.62566,298.21008 378.3602,297.85202 C 378.09475,297.49394 377.71988,297.31485 377.23544,297.31485 M 377.23544,296.16217 C 378.22067,296.16217 378.99244,296.44586 379.5507,297.01325 C 380.10896,297.58073 380.38814,298.36434 380.38814,299.36418 C 380.38814,300.3613 380.10896,301.14361 379.5507,301.71099 C 378.99244,302.27837 378.22067,302.56217 377.23544,302.56217 C 376.253,302.56217 375.4812,302.27837 374.92025,301.71099 C 374.36192,301.14361 374.08283,300.3613 374.08283,299.36418 C 374.08283,298.36434 374.36192,297.58073 374.92025,297.01325 C 375.4812,296.44586 376.253,296.16217 377.23544,296.16217"
         style="font-size:9.06734467px;font-style:normal;font-variant:normal;font-weight:bold;font-stretch:normal;text-align:start;line-height:125%;writing-mode:lr-tb;text-anchor:start;fill:#ffffff;fill-opacity:1;stroke:none;stroke-width:1px;stroke-linecap:butt;stroke-linejoin:miter;stroke-opacity:1;font-family:'Bitstream Vera Sans'"
         inkscape:export-filename="/mnt/hgfs/Bov/Documents/Work/2007/cc/projects/zero/cc-zero-tiny.png"
         inkscape:export-xdpi="90"
         inkscape:export-ydpi="90" />
    </g>
  </g>
</svg>
