<?xml version="1.0" encoding="UTF-8" standalone="no"?>
<!-- Created with Inkscape (http://www.inkscape.org/) -->
<svg
   xmlns:dc="http://purl.org/dc/elements/1.1/"
   xmlns:cc="http://web.resource.org/cc/"
   xmlns:rdf="http://www.w3.org/1999/02/22-rdf-syntax-ns#"
   xmlns:svg="http://www.w3.org/2000/svg"
   xmlns="http://www.w3.org/2000/svg"
   xmlns:sodipodi="http://sodipodi.sourceforge.net/DTD/sodipodi-0.dtd"
   xmlns:inkscape="http://www.inkscape.org/namespaces/inkscape"
   width="88"
   height="31"
   id="svg9690"
   sodipodi:version="0.32"
   inkscape:version="0.45+devel"
   version="1.0"
   sodipodi:docname="cc-zero.svg"
   inkscape:output_extension="org.inkscape.output.svg.inkscape">
  <defs
     id="defs9692" />
  <sodipodi:namedview
     id="base"
     pagecolor="#ffffff"
     bordercolor="#666666"
     borderopacity="1.0"
     gridtolerance="10000"
     guidetolerance="10"
     objecttolerance="10"
     inkscape:pageopacity="0.0"
     inkscape:pageshadow="2"
     inkscape:zoom="3.0879032"
     inkscape:cx="41.389397"
     inkscape:cy="19.104205"
     inkscape:document-units="px"
     inkscape:current-layer="layer1"
     inkscape:window-width="641"
     inkscape:window-height="620"
     inkscape:window-x="540"
     inkscape:window-y="321" />
  <metadata
     id="metadata9695">
    <rdf:RDF>
      <cc:Work
         rdf:about="">
        <dc:format>image/svg+xml</dc:format>
        <dc:type
           rdf:resource="http://purl.org/dc/dcmitype/StillImage" />
        <dc:title>CC0 - Button</dc:title>
        <dc:creator>
          <cc:Agent>
            <dc:title>Alex Roberts</dc:title>
          </cc:Agent>
        </dc:creator>
        <dc:publisher>
          <cc:Agent>
            <dc:title>Creative Commons</dc:title>
          </cc:Agent>
        </dc:publisher>
        <dc:source>http://creativecommons.org/</dc:source>
      </cc:Work>
    </rdf:RDF>
  </metadata>
  <g
     inkscape:label="Layer 1"
     inkscape:groupmode="layer"
     id="layer1">
    <g
       transform="matrix(0.7333333,0,0,0.7333333,-1218.7999,-946.06557)"
       id="g8489">
      <path
         id="path8491"
         nodetypes="ccccccc"
         d="M 1665.14,1290.8697 L 1778.4936,1291.0711 C 1780.0775,1291.0711 1781.4924,1290.8363 1781.4924,1294.2316 L 1781.3536,1331.5607 L 1662.2795,1331.5607 L 1662.2795,1294.0928 C 1662.2795,1292.4185 1662.4416,1290.8697 1665.14,1290.8697 z"
         style="fill:#aab2ab" />
      <path
         d="M 1779.7524,1290.3622 L 1664.2471,1290.3622 C 1663.0083,1290.3622 1662,1291.37 1662,1292.6087 L 1662,1331.8552 C 1662,1332.1352 1662.2276,1332.3622 1662.5076,1332.3622 L 1781.4924,1332.3622 C 1781.7724,1332.3622 1782,1332.1352 1782,1331.8552 L 1782,1292.6087 C 1782,1291.37 1780.9917,1290.3622 1779.7524,1290.3622 z M 1664.2471,1291.3772 L 1779.7524,1291.3772 C 1780.4322,1291.3772 1780.9849,1291.9294 1780.9849,1292.6087 C 1780.9849,1292.6087 1780.9849,1308.4559 1780.9849,1319.8846 L 1698.1596,1319.8846 C 1695.1337,1325.3556 1689.304,1329.0702 1682.6135,1329.0702 C 1675.9201,1329.0702 1670.0918,1325.359 1667.0674,1319.8846 L 1663.0151,1319.8846 C 1663.0151,1308.4559 1663.0151,1292.6087 1663.0151,1292.6087 C 1663.0151,1291.9294 1663.5678,1291.3772 1664.2471,1291.3772 z"
         id="path8493" />
      <path
         style="font-size:9.06734467px;font-style:normal;font-variant:normal;font-weight:bold;font-stretch:normal;text-align:start;line-height:125%;writing-mode:lr-tb;text-anchor:start;fill:#ffffff;fill-opacity:1;stroke:none;stroke-width:1px;stroke-linecap:butt;stroke-linejoin:miter;stroke-opacity:1;font-family:'Bitstream Vera Sans'"
         d="M 1725.7576,1322.7934 L 1731.314,1322.7934 L 1731.314,1323.825 L 1727.7676,1328.1152 L 1731.4158,1328.1152 L 1731.4158,1329.4036 L 1725.6557,1329.4036 L 1725.6557,1328.372 L 1729.2021,1324.0818 L 1725.7576,1324.0818 L 1725.7576,1322.7934 M 1732.651,1322.7934 L 1737.2511,1322.7934 L 1737.2511,1324.0818 L 1734.3556,1324.0818 L 1734.3556,1325.3126 L 1737.0785,1325.3126 L 1737.0785,1326.601 L 1734.3556,1326.601 L 1734.3556,1328.1152 L 1737.3485,1328.1152 L 1737.3485,1329.4036 L 1732.651,1329.4036 L 1732.651,1322.7934 M 1741.2712,1325.7244 C 1741.6284,1325.7244 1741.8837,1325.658 1742.0372,1325.5251 C 1742.1936,1325.3923 1742.2718,1325.1739 1742.2718,1324.8699 C 1742.2718,1324.5688 1742.1936,1324.3534 1742.0372,1324.2235 C 1741.8837,1324.0936 1741.6284,1324.0287 1741.2712,1324.0287 L 1740.554,1324.0287 L 1740.554,1325.7244 L 1741.2712,1325.7244 M 1740.554,1326.9021 L 1740.554,1329.4036 L 1738.8494,1329.4036 L 1738.8494,1322.7934 L 1741.4528,1322.7934 C 1742.3235,1322.7934 1742.961,1322.9395 1743.3654,1323.2317 C 1743.7727,1323.524 1743.9764,1323.9859 1743.9764,1324.6175 C 1743.9764,1325.0544 1743.8701,1325.413 1743.6576,1325.6934 C 1743.448,1325.9738 1743.1307,1326.1804 1742.7057,1326.3132 C 1742.9389,1326.3664 1743.147,1326.4874 1743.33,1326.6763 C 1743.5159,1326.8622 1743.7033,1327.1456 1743.8923,1327.5263 L 1744.8176,1329.4036 L 1743.0023,1329.4036 L 1742.1966,1327.761 C 1742.0342,1327.4304 1741.8689,1327.2046 1741.7007,1327.0836 C 1741.5354,1326.9626 1741.314,1326.9021 1741.0366,1326.9021 L 1740.554,1326.9021 M 1748.8465,1323.9091 C 1748.327,1323.9091 1747.9241,1324.101 1747.6378,1324.4847 C 1747.3515,1324.8684 1747.2084,1325.4086 1747.2084,1326.1051 C 1747.2084,1326.7988 1747.3515,1327.3374 1747.6378,1327.7211 C 1747.9241,1328.1049 1748.327,1328.2967 1748.8465,1328.2967 C 1749.369,1328.2967 1749.7733,1328.1049 1750.0596,1327.7211 C 1750.3459,1327.3374 1750.4891,1326.7988 1750.4891,1326.1051 C 1750.4891,1325.4086 1750.3459,1324.8684 1750.0596,1324.4847 C 1749.7733,1324.101 1749.369,1323.9091 1748.8465,1323.9091 M 1748.8465,1322.6739 C 1749.9091,1322.6739 1750.7415,1322.9779 1751.3436,1323.5859 C 1751.9457,1324.194 1752.2468,1325.0337 1752.2468,1326.1051 C 1752.2468,1327.1736 1751.9457,1328.0119 1751.3436,1328.6199 C 1750.7415,1329.2279 1749.9091,1329.532 1748.8465,1329.532 C 1747.7869,1329.532 1746.9545,1329.2279 1746.3495,1328.6199 C 1745.7473,1328.0119 1745.4463,1327.1736 1745.4463,1326.1051 C 1745.4463,1325.0337 1745.7473,1324.194 1746.3495,1323.5859 C 1746.9545,1322.9779 1747.7869,1322.6739 1748.8465,1322.6739"
         id="text8495" />
      <g
         id="g8499"
         transform="matrix(0.8674851,0,0,0.8673951,1534.1205,1432.67)">
        <path
           id="path8501"
           cx="296.35416"
           ry="22.939548"
           cy="264.3577"
           type="arc"
           rx="22.939548"
           d="M 186.90065,-141.46002 C 186.90623,-132.77923 179.87279,-125.73852 171.19257,-125.73291 C 162.51235,-125.72736 155.47051,-132.76025 155.46547,-141.44098 C 155.46547,-141.44714 155.46547,-141.45331 155.46547,-141.46002 C 155.46043,-150.14081 162.49333,-157.18152 171.17355,-157.18658 C 179.8549,-157.19213 186.89561,-150.15924 186.90065,-141.47845 C 186.90065,-141.4729 186.90065,-141.46619 186.90065,-141.46002 z"
           style="fill:#ffffff" />
        <g
           id="g8503"
           transform="translate(-289.6157,99.0653)">
          <path
             id="path8505"
             d="M 473.57574,-253.32751 C 477.06115,-249.8421 478.80413,-245.5736 478.80413,-240.52532 C 478.80413,-235.47594 477.09136,-231.25329 473.66582,-227.85741 C 470.03051,-224.28081 465.734,-222.49309 460.77635,-222.49309 C 455.87858,-222.49309 451.65648,-224.26628 448.11122,-227.81261 C 444.56541,-231.35845 442.79277,-235.59563 442.79277,-240.52532 C 442.79277,-245.45391 444.56541,-249.7213 448.11122,-253.32751 C 451.56642,-256.81402 455.7885,-258.557 460.77635,-258.557 C 465.82465,-258.55701 470.09039,-256.81403 473.57574,-253.32751 z M 450.45776,-250.98267 C 447.51104,-248.00629 446.03823,-244.51978 446.03823,-240.52033 C 446.03823,-236.52198 447.49651,-233.06507 450.41247,-230.14966 C 453.32897,-227.23316 456.80096,-225.77545 460.82952,-225.77545 C 464.85808,-225.77545 468.35967,-227.24768 471.33605,-230.19385 C 474.16198,-232.9303 475.57549,-236.37091 475.57549,-240.52033 C 475.57549,-244.63837 474.13903,-248.13379 471.26781,-251.00501 C 468.39714,-253.87568 464.9179,-255.31159 460.82952,-255.31159 C 456.74112,-255.31158 453.28314,-253.86841 450.45776,-250.98267 z M 458.21225,-242.27948 C 457.76196,-243.26117 457.08795,-243.75232 456.18903,-243.75232 C 454.59986,-243.75232 453.80558,-242.68225 453.80558,-240.54321 C 453.80558,-238.40368 454.59986,-237.33471 456.18903,-237.33471 C 457.23841,-237.33471 457.98795,-237.85546 458.43769,-238.89922 L 460.64045,-237.72625 C 459.59052,-235.86077 458.01536,-234.92779 455.91496,-234.92779 C 454.29506,-234.92779 452.99733,-235.42449 452.0229,-236.4168 C 451.0468,-237.41021 450.56016,-238.77953 450.56016,-240.52532 C 450.56016,-242.24035 451.06245,-243.60186 452.06764,-244.61034 C 453.07283,-245.61888 454.32466,-246.12291 455.82545,-246.12291 C 458.04557,-246.12291 459.63526,-245.24803 460.59626,-243.50005 L 458.21225,-242.27948 z M 468.57562,-242.27948 C 468.12475,-243.26117 467.46417,-243.75232 466.5932,-243.75232 C 464.97217,-243.75232 464.16107,-242.68225 464.16107,-240.54321 C 464.16107,-238.40368 464.97217,-237.33471 466.5932,-237.33471 C 467.64429,-237.33471 468.38037,-237.85546 468.80048,-238.89922 L 471.05249,-237.72625 C 470.00421,-235.86077 468.43127,-234.92779 466.33478,-234.92779 C 464.7171,-234.92779 463.42218,-235.42449 462.44831,-236.4168 C 461.47614,-237.41021 460.98896,-238.77953 460.98896,-240.52532 C 460.98896,-242.24035 461.48341,-243.60186 462.47181,-244.61034 C 463.45966,-245.61888 464.71711,-246.12291 466.24531,-246.12291 C 468.4615,-246.12291 470.04896,-245.24803 471.0066,-243.50005 L 468.57562,-242.27948 z" />
        </g>
      </g>
      <g
         transform="translate(1134.8629,289.78504)"
         id="g8507">
        <path
           d="M 609,957.86218 A 5.25,10.5 0 1 1 598.5,957.86218 A 5.25,10.5 0 1 1 609,957.86218 z"
           sodipodi:ry="10.5"
           sodipodi:rx="5.25"
           sodipodi:cy="957.86218"
           sodipodi:cx="603.75"
           id="path8509"
           style="opacity:1;fill:#ffffff;fill-opacity:1;stroke:none;stroke-width:0.63;stroke-linecap:round;stroke-linejoin:round;stroke-miterlimit:4;stroke-dasharray:none;stroke-dashoffset:0;stroke-opacity:1"
           sodipodi:type="arc"
           transform="translate(0,57.275649)" />
        <path
           style="font-size:70.15636444px;font-style:normal;font-weight:bold;writing-mode:lr-tb;fill:#000000;fill-opacity:1;stroke:none;stroke-width:1px;stroke-linecap:butt;stroke-linejoin:miter;stroke-opacity:1;font-family:'Avenir LT Std'"
           d="M 604.08838,1003.6025 C 597.47367,1003.6025 595.81036,1009.8438 595.81036,1015.1356 C 595.81036,1020.4273 597.47367,1026.6687 604.08838,1026.6687 C 610.70308,1026.6687 612.3664,1020.4273 612.3664,1015.1356 C 612.3664,1009.8438 610.70309,1003.6025 604.08838,1003.6025 z M 604.08838,1007.9519 C 604.35745,1007.9519 604.60199,1007.9931 604.832,1008.0501 C 605.30769,1008.4609 605.54156,1009.0264 605.08455,1009.818 L 600.67895,1017.9136 C 600.54414,1016.8891 600.52462,1015.8843 600.52462,1015.1356 C 600.52461,1012.8047 600.68653,1007.9519 604.08838,1007.9519 z M 607.38556,1011.6841 C 607.61881,1012.9263 607.65214,1014.2234 607.65214,1015.1356 C 607.65213,1017.4665 607.49023,1022.3192 604.08838,1022.3192 C 603.82068,1022.3192 603.57378,1022.2915 603.34476,1022.235 C 603.30091,1022.2214 603.26133,1022.2078 603.21848,1022.1929 C 603.14855,1022.172 603.07438,1022.1487 603.00803,1022.1228 C 602.25067,1021.8006 601.77334,1021.2178 602.46084,1020.1866 L 607.38556,1011.6841 z"
           id="path8511" />
      </g>
    </g>
  </g>
</svg>
