<?xml version="1.0" encoding="UTF-8" standalone="no"?>
<!-- Created with Inkscape (http://www.inkscape.org/) -->
<svg
   xmlns:dc="http://purl.org/dc/elements/1.1/"
   xmlns:cc="http://web.resource.org/cc/"
   xmlns:rdf="http://www.w3.org/1999/02/22-rdf-syntax-ns#"
   xmlns:svg="http://www.w3.org/2000/svg"
   xmlns="http://www.w3.org/2000/svg"
   xmlns:xlink="http://www.w3.org/1999/xlink"
   xmlns:sodipodi="http://sodipodi.sourceforge.net/DTD/sodipodi-0.dtd"
   xmlns:inkscape="http://www.inkscape.org/namespaces/inkscape"
   width="80"
   height="15"
   id="svg10525"
   sodipodi:version="0.32"
   inkscape:version="0.45+devel"
   version="1.0"
   sodipodi:docname="sc-norms-tiny.svg"
   inkscape:output_extension="org.inkscape.output.svg.inkscape"
   inkscape:export-filename="/mnt/hgfs/Bov/Documents/Work/2007/cc/projects/zero/80x15/sc-norms-tiny-300.png"
   inkscape:export-xdpi="299.99448"
   inkscape:export-ydpi="299.99448">
  <defs
     id="defs10527">
    <clipPath
       clipPathUnits="userSpaceOnUse"
       id="clipPath10477">
      <rect
         y="452.86111"
         x="1350.8455"
         height="56.702469"
         width="93.565414"
         id="rect10479"
         style="fill:#000000;fill-opacity:1;stroke:none;stroke-width:0.92243534;stroke-miterlimit:4;stroke-dasharray:none;stroke-opacity:1" />
    </clipPath>
    <linearGradient
       id="linearGradient9830">
      <stop
         id="stop9832"
         offset="0"
         style="stop-color:#446298;stop-opacity:1;" />
      <stop
         style="stop-color:#30528d;stop-opacity:1;"
         offset="0.5"
         id="stop9834" />
      <stop
         id="stop9836"
         offset="1"
         style="stop-color:#163872;stop-opacity:1;" />
    </linearGradient>
    <radialGradient
       inkscape:collect="always"
       xlink:href="#linearGradient9830"
       id="radialGradient10511"
       gradientUnits="userSpaceOnUse"
       gradientTransform="matrix(2.1702009,0,0,0.7583116,-206.33861,34.810009)"
       cx="167.76324"
       cy="142.01288"
       fx="167.76324"
       fy="142.01288"
       r="11.26328" />
  </defs>
  <sodipodi:namedview
     id="base"
     pagecolor="#ffffff"
     bordercolor="#666666"
     borderopacity="1.0"
     gridtolerance="10000"
     guidetolerance="10"
     objecttolerance="10"
     inkscape:pageopacity="0.0"
     inkscape:pageshadow="2"
     inkscape:zoom="5.8015152"
     inkscape:cx="44.285714"
     inkscape:cy="-1.4285714"
     inkscape:document-units="px"
     inkscape:current-layer="layer1"
     inkscape:window-width="641"
     inkscape:window-height="620"
     inkscape:window-x="374"
     inkscape:window-y="151" />
  <metadata
     id="metadata10530">
    <rdf:RDF>
      <cc:Work
         rdf:about="">
        <dc:format>image/svg+xml</dc:format>
        <dc:type
           rdf:resource="http://purl.org/dc/dcmitype/StillImage" />
        <dc:title>CC0 - Science Commons Norms - Tiny</dc:title>
        <dc:creator>
          <cc:Agent>
            <dc:title>Alex Roberts</dc:title>
          </cc:Agent>
        </dc:creator>
        <dc:publisher>
          <cc:Agent>
            <dc:title>Creative Commons</dc:title>
          </cc:Agent>
        </dc:publisher>
        <dc:identifier></dc:identifier>
        <dc:source>http://creativecommons.org/</dc:source>
      </cc:Work>
    </rdf:RDF>
  </metadata>
  <g
     inkscape:label="Layer 1"
     inkscape:groupmode="layer"
     id="layer1">
    <g
       id="g10515"
       transform="translate(-152,-135)">
      <rect
         y="135.49973"
         x="152.5"
         height="14.000277"
         width="79"
         id="rect10431"
         style="fill:#ffffff;fill-opacity:1;stroke:#000000;stroke-width:1.00000012;stroke-miterlimit:4;stroke-dasharray:none;stroke-opacity:1" />
      <rect
         style="fill:#000000;fill-opacity:1;stroke:none;stroke-width:0.92243534;stroke-miterlimit:4;stroke-dasharray:none;stroke-opacity:1"
         id="rect10433"
         width="76"
         height="11"
         x="154"
         y="137" />
      <path
         sodipodi:nodetypes="cccscc"
         id="path10435"
         d="M 154,137 L 154,148 L 172.95674,148 C 174.17671,146.39554 175,144.53089 175,142.5 C 175,140.48265 174.19089,138.59761 172.98588,137 L 154,137 z"
         style="fill:url(#radialGradient10511);fill-opacity:1;stroke:none;stroke-width:1;stroke-miterlimit:4;stroke-dasharray:none;stroke-opacity:0.46913578" />
      <g
         clip-path="url(#clipPath10477)"
         transform="matrix(0.1941321,0,0,0.1939951,-108.00163,49.147162)"
         id="g10469">
        <path
           transform="matrix(1.016129,0,0,1.016129,-22.096774,-4.19939)"
           d="M 1432,477.36218 A 31,31 0 1 1 1370,477.36218 A 31,31 0 1 1 1432,477.36218 z"
           sodipodi:ry="31"
           sodipodi:rx="31"
           sodipodi:cy="477.36218"
           sodipodi:cx="1401"
           id="path10471"
           style="opacity:1;fill:#ffffff;fill-opacity:1;stroke:none;stroke-width:3;stroke-linecap:round;stroke-linejoin:round;stroke-miterlimit:4;stroke-dasharray:none;stroke-dashoffset:0;stroke-opacity:1"
           sodipodi:type="arc" />
        <path
           id="path10473"
           d="M 1379.4945,488.57591 C 1380.4548,490.14743 1381.5898,491.1078 1382.9867,491.84991 C 1385.213,493.02854 1387.7013,493.37777 1389.8403,493.37777 C 1392.9397,493.37777 1396.0827,492.67932 1398.178,490.93319 C 1399.5313,489.7982 1400.7536,488.00842 1400.7536,485.1273 C 1400.7536,482.90099 1399.9678,481.32947 1397.9161,480.15083 C 1397.4796,479.88891 1396.1263,479.19046 1392.2849,478.3174 L 1391.1499,478.05548 C 1390.2768,477.83721 1389.622,477.7499 1388.7489,477.40068 C 1388.1814,477.18241 1387.5266,476.87684 1387.5266,475.82916 C 1387.5266,475.39263 1387.7013,474.78148 1388.2688,474.34495 C 1388.8799,473.86476 1389.622,473.77746 1390.2332,473.77746 C 1391.5864,473.77746 1392.9397,474.17034 1394.031,474.73783 C 1394.8604,475.17436 1395.6462,475.74185 1396.17,476.17839 L 1399.9242,472.11863 C 1398.6146,471.07096 1397.2177,470.2852 1395.9081,469.80501 C 1394.4239,469.23752 1392.765,468.88829 1390.7133,468.88829 C 1387.1774,468.88829 1384.8201,469.89232 1383.2486,471.28922 C 1381.6335,472.72978 1380.8914,474.65052 1380.8914,476.96415 C 1380.8914,479.01585 1381.5898,480.45641 1383.4669,481.6787 C 1384.6892,482.46445 1386.0424,482.85733 1387.4393,483.25021 C 1389.0109,483.68675 1389.491,483.7304 1390.626,483.94867 C 1391.8047,484.16693 1392.3285,484.29789 1392.7214,484.4725 C 1393.6381,484.86538 1393.9873,485.60749 1393.9873,486.13133 C 1393.9873,486.65517 1393.7691,487.26631 1393.1579,487.65919 C 1392.6777,488.00842 1391.8483,488.31399 1390.4951,488.31399 C 1387.8322,488.31399 1385.344,487.22266 1383.5542,485.04 L 1379.4945,488.57591 M 1423.636,474.43226 C 1422.8939,473.03535 1421.8026,471.72575 1420.493,470.76538 C 1418.4413,469.28117 1416.1276,468.93195 1414.1633,468.93195 C 1409.7106,468.93195 1407.0041,470.67808 1405.5199,472.20594 C 1403.5119,474.25764 1402.2023,477.40068 1402.2023,481.46043 C 1402.2023,486.08767 1403.9484,489.09975 1405.8691,490.75857 C 1407.8335,492.5047 1410.671,493.37777 1413.5085,493.37777 C 1415.5165,493.37777 1417.9174,492.89758 1420.1001,491.41337 C 1421.7153,490.27839 1422.9812,488.70687 1423.8106,487.22266 L 1418.8778,484.51616 C 1418.6159,485.21461 1418.0484,486.26229 1417.1753,486.96074 C 1416.1277,487.8338 1414.9054,488.00842 1414.0323,488.00842 C 1412.1116,488.00842 1410.9766,487.04805 1410.2781,486.08768 C 1409.7979,485.38922 1408.9685,483.94866 1408.9685,481.15486 C 1408.9685,478.14279 1409.9289,476.48396 1410.8456,475.61089 C 1411.6314,474.86879 1412.81,474.3013 1414.2942,474.3013 C 1415.4728,474.3013 1416.3896,474.69418 1417.0007,475.13071 C 1417.6555,475.61089 1418.3103,476.48396 1418.7032,477.31337 L 1423.636,474.43226"
           style="font-size:43.65325546px;font-style:normal;font-variant:normal;font-weight:normal;font-stretch:normal;text-align:start;line-height:125%;writing-mode:lr-tb;text-anchor:start;fill:#000000;fill-opacity:1;stroke:none;stroke-width:1px;stroke-linecap:butt;stroke-linejoin:miter;stroke-opacity:1;font-family:'Gothic725 Blk BT'" />
        <path
           id="path10475"
           d="M 1401.5759,444.61796 C 1391.4246,444.61805 1382.8693,448.15139 1375.8985,455.25296 C 1372.3694,458.782 1369.6738,462.80982 1367.8006,467.29726 C 1365.9704,471.74125 1365.0583,476.37649 1365.0583,481.21246 C 1365.0583,486.09211 1365.9704,490.7273 1367.8006,495.12761 C 1369.6303,499.528 1372.2848,503.48922 1375.7704,507.01826 C 1379.299,510.5037 1383.2604,513.19152 1387.6609,515.06498 C 1392.1048,516.89484 1396.74,517.80696 1401.5759,517.80696 C 1406.4119,517.80696 1411.1138,516.86154 1415.6447,514.98804 C 1420.176,513.11463 1424.2192,510.41908 1427.7918,506.89009 C 1431.2335,503.53538 1433.8395,499.68943 1435.5823,495.33254 C 1437.3686,490.93223 1438.2473,486.22284 1438.2473,481.21246 C 1438.2473,476.24567 1437.3686,471.54396 1435.5823,467.14361 C 1433.7956,462.69971 1431.1823,458.77175 1427.7406,455.32981 C 1420.5516,448.18464 1411.8142,444.61805 1401.5759,444.61796 z M 1401.7296,451.20401 C 1410.0078,451.20401 1417.0664,454.13779 1422.9485,460.01944 C 1425.78,462.8514 1427.9505,466.0901 1429.4317,469.70619 C 1430.9133,473.32236 1431.6612,477.16071 1431.6612,481.21246 C 1431.6612,489.6211 1428.784,496.59811 1423.0766,502.17489 C 1420.1138,505.05034 1416.7855,507.26157 1413.0822,508.78646 C 1409.4223,510.31135 1405.6507,511.06717 1401.7296,511.06717 C 1397.7651,511.06717 1393.9675,510.31904 1390.3515,508.83774 C 1386.7355,507.31284 1383.4891,505.13488 1380.6137,502.30297 C 1377.7383,499.42751 1375.5193,496.18116 1373.9508,492.56489 C 1372.4257,488.90531 1371.6444,485.1336 1371.6444,481.21246 C 1371.6444,477.24776 1372.4257,473.45054 1373.9508,469.83436 C 1375.5193,466.17463 1377.7383,462.88735 1380.6137,459.96816 C 1386.3211,454.13006 1393.3646,451.20401 1401.7296,451.20401 z"
           style="font-size:111.57081604px;font-style:normal;font-weight:normal;writing-mode:lr-tb;fill:#000000;fill-opacity:1;stroke:none;stroke-width:1px;stroke-linecap:butt;stroke-linejoin:miter;stroke-opacity:1;font-family:'CC Icons'" />
      </g>
      <path
         id="path10481"
         d="M 177.23382,139.91165 L 178.78946,139.91165 L 180.75395,143.61374 L 180.75395,139.91165 L 182.07457,139.91165 L 182.07457,145.30932 L 180.51882,145.30932 L 178.55433,141.60724 L 178.55433,145.30932 L 177.23382,145.30932 L 177.23382,139.91165 M 185.9095,140.82271 C 185.48493,140.82273 185.15576,140.97938 184.92174,141.2927 C 184.68784,141.60603 184.57083,142.0471 184.57083,142.6159 C 184.57083,143.1823 184.68784,143.62217 184.92174,143.93548 C 185.15576,144.24882 185.48493,144.40547 185.9095,144.40547 C 186.33641,144.40547 186.66682,144.24882 186.90071,143.93548 C 187.13473,143.62217 187.25174,143.1823 187.25174,142.6159 C 187.25174,142.0471 187.13473,141.60603 186.90071,141.2927 C 186.66682,140.97938 186.33641,140.82273 185.9095,140.82271 M 185.9095,139.81404 C 186.7778,139.81404 187.4579,140.0623 187.94999,140.55878 C 188.44198,141.0553 188.68803,141.74099 188.68803,142.6159 C 188.68803,143.48841 188.44198,144.1729 187.94999,144.66941 C 187.4579,145.1659 186.7778,145.41415 185.9095,145.41415 C 185.04354,145.41415 184.36344,145.1659 183.86901,144.66941 C 183.37691,144.1729 183.13097,143.48841 183.13097,142.6159 C 183.13097,141.74099 183.37691,141.0553 183.86901,140.55878 C 184.36344,140.0623 185.04354,139.81404 185.9095,139.81404 M 191.71617,142.30499 C 192.00802,142.305 192.21662,142.25076 192.34199,142.14231 C 192.46991,142.03384 192.53377,141.85548 192.53377,141.60724 C 192.53377,141.36139 192.46991,141.18545 192.34199,141.07939 C 192.21662,140.97335 192.00802,140.92032 191.71617,140.92032 L 191.13002,140.92032 L 191.13002,142.30499 L 191.71617,142.30499 M 191.13002,143.26666 L 191.13002,145.30932 L 189.73719,145.30932 L 189.73719,139.91165 L 191.86449,139.91165 C 192.576,139.91165 193.09696,140.03096 193.42736,140.26957 C 193.76023,140.50818 193.92671,140.88538 193.92671,141.40116 C 193.92671,141.75788 193.83979,142.05072 193.66617,142.27968 C 193.4949,142.50866 193.2357,142.67737 192.88835,142.78582 C 193.07891,142.8292 193.24896,142.92802 193.3985,143.08227 C 193.55039,143.23412 193.70351,143.46551 193.85796,143.77641 L 194.61404,145.30932 L 193.13073,145.30932 L 192.47226,143.96803 C 192.33965,143.69808 192.20459,143.5137 192.06708,143.41489 C 191.93202,143.31606 191.75116,143.26666 191.52439,143.26666 L 191.13002,143.26666 M 195.43889,139.91165 L 197.2117,139.91165 L 198.44173,142.80028 L 199.6791,139.91165 L 201.44825,139.91165 L 201.44825,145.30932 L 200.13131,145.30932 L 200.13131,141.36139 L 198.8868,144.27172 L 198.00402,144.27172 L 196.7595,141.36139 L 196.7595,145.30932 L 195.43889,145.30932 L 195.43889,139.91165 M 206.57839,140.08158 L 206.57839,141.22401 C 206.28164,141.09146 205.99225,140.99142 205.7101,140.92394 C 205.42783,140.85646 205.16139,140.82273 204.91055,140.82271 C 204.57769,140.82273 204.33164,140.86851 204.17251,140.96009 C 204.01327,141.05168 203.9337,141.19388 203.9337,141.38669 C 203.9337,141.53132 203.98675,141.64459 204.09283,141.72654 C 204.20137,141.80607 204.39672,141.87477 204.67899,141.9326 L 205.27226,142.05192 C 205.8729,142.17243 206.29981,142.35561 206.55299,142.60144 C 206.80628,142.84729 206.93287,143.19677 206.93287,143.64988 C 206.93287,144.24521 206.75558,144.68868 206.4011,144.98031 C 206.04897,145.26954 205.50985,145.41415 204.78385,145.41415 C 204.4414,145.41415 204.09774,145.38163 203.75285,145.31654 C 203.40784,145.25147 203.06295,145.15506 202.71806,145.02732 L 202.71806,143.85233 C 203.06295,144.03552 203.3958,144.1741 203.71662,144.2681 C 204.03979,144.35969 204.35092,144.40547 204.65001,144.40547 C 204.95389,144.40547 205.18668,144.35487 205.34826,144.25364 C 205.50985,144.1524 205.59064,144.00781 205.59064,143.8198 C 205.59064,143.65109 205.53514,143.52093 205.42426,143.42934 C 205.31573,143.33776 205.09743,143.25581 204.76935,143.18351 L 204.23034,143.0642 C 203.69011,142.94852 203.29451,142.76413 203.04367,142.51107 C 202.79529,142.258 202.67103,141.91695 202.67103,141.48793 C 202.67103,140.95045 202.84476,140.5371 203.19199,140.24787 C 203.53933,139.95866 204.03857,139.81404 204.68979,139.81404 C 204.98643,139.81404 205.29154,139.83693 205.60512,139.88272 C 205.9187,139.92611 206.24309,139.9924 206.57839,140.08158"
         style="font-size:6.64905882px;font-style:normal;font-variant:normal;font-weight:bold;font-stretch:normal;text-align:start;line-height:125%;writing-mode:lr-tb;text-anchor:start;fill:#ffffff;fill-opacity:1;stroke:none;stroke-width:1px;stroke-linecap:butt;stroke-linejoin:miter;stroke-opacity:1;font-family:'Bitstream Vera Sans'" />
    </g>
  </g>
</svg>
