<?xml version="1.0" encoding="UTF-8" standalone="no"?>
<!-- Created with Inkscape (http://www.inkscape.org/) -->

<svg
   xmlns:dc="http://purl.org/dc/elements/1.1/"
   xmlns:cc="http://creativecommons.org/ns#"
   xmlns:rdf="http://www.w3.org/1999/02/22-rdf-syntax-ns#"
   xmlns:svg="http://www.w3.org/2000/svg"
   xmlns="http://www.w3.org/2000/svg"
   xmlns:sodipodi="http://sodipodi.sourceforge.net/DTD/sodipodi-0.dtd"
   xmlns:inkscape="http://www.inkscape.org/namespaces/inkscape"
   width="172.36678"
   height="179.84143"
   id="svg5290"
   version="1.1"
   inkscape:version="0.48.0 r9654"
   sodipodi:docname="legalcode.svg"
   inkscape:export-filename="/home/nyergler/p/e/license-layers/img/legalcode.png"
   inkscape:export-xdpi="90.879997"
   inkscape:export-ydpi="90.879997">
  <defs
     id="defs5292" />
  <sodipodi:namedview
     id="base"
     pagecolor="#ffffff"
     bordercolor="#666666"
     borderopacity="1.0"
     inkscape:pageopacity="0.0"
     inkscape:pageshadow="2"
     inkscape:zoom="0.35"
     inkscape:cx="86.183436"
     inkscape:cy="89.92187"
     inkscape:document-units="px"
     inkscape:current-layer="layer1"
     showgrid="false"
     fit-margin-top="0"
     fit-margin-left="0"
     fit-margin-right="0"
     fit-margin-bottom="0"
     inkscape:window-width="515"
     inkscape:window-height="459"
     inkscape:window-x="8"
     inkscape:window-y="97"
     inkscape:window-maximized="0" />
  <metadata
     id="metadata5295">
    <rdf:RDF>
      <cc:Work
         rdf:about="">
        <dc:format>image/svg+xml</dc:format>
        <dc:type
           rdf:resource="http://purl.org/dc/dcmitype/StillImage" />
        <dc:title></dc:title>
      </cc:Work>
    </rdf:RDF>
  </metadata>
  <g
     inkscape:label="Layer 1"
     inkscape:groupmode="layer"
     id="layer1"
     transform="translate(-288.81656,-442.44262)">
    <g
       transform="translate(-137.46794,-93.343382)"
       id="g4503">
      <g
         id="g75574_1_"
         transform="matrix(0.9826883,-0.1545343,0.1545343,0.9826883,444.23578,-664.84077)">
        <g
           id="g75578_1_">
          <path
             style="fill:#f2f2f2;stroke:#b3b3b3;stroke-width:1.06488502"
             inkscape:connector-curvature="0"
             id="path75580_1_"
             nodetypes="ccccccc"
             d="m -201.35498,1190.6646 c -1.84049,-0.2905 -3.55093,0.9301 -3.83649,2.7397 l -27.57306,174.0301 169.880558,26.9106 27.576233,-174.0316 c 0.282349,-1.808 -0.966248,-3.4989 -2.802551,-3.7908 l -163.24469,-25.858 z" />
          <polygon
             style="fill:#ffffff;stroke:#b3b3b3;stroke-width:1.06488502"
             id="rect75582_1_"
             points="-39.474304,1246.5813 -50.184692,1314.1834 -60.104675,1376.7979 -229.98538,1349.8882 -221.57892,1296.8293 -209.35107,1219.6722 " />
        </g>
        <g
           id="g75584_1_"
           transform="matrix(2.1424816,0,0,2.1424816,-735.63382,-432.10572)">
          <g
             id="g75586_1_"
             transform="matrix(0.624995,0,0,0.624995,356.3859,679.94613)">
            <g
               id="g75588_1_"
               transform="translate(-23.9521,-89.72962)">
              <path
                 style="fill:none;stroke:#cccccc;stroke-width:1.06488502"
                 inkscape:connector-curvature="0"
                 id="path75590_1_"
                 d="m -72.427307,274.60651 c -5.110748,-0.80964 -9.71051,0.25631 -13.80188,3.19601 -4.20639,3.04779 -6.69931,7.04556 -7.485229,11.99603 -0.783142,4.95166 0.35788,9.4942 3.425629,13.63022 3.064758,4.13629 7.104706,6.60172 12.12265,7.39749 5.077667,0.80295 9.761444,-0.2973 14.055389,-3.29791 4.046844,-2.85467 6.472137,-6.81857 7.275391,-11.88876 0.80304,-5.06876 -0.300903,-9.63959 -3.315796,-13.70569 -3.015046,-4.0654 -7.10904,-6.50818 -12.276154,-7.32739 z m -0.472199,3.26687 c 4.185547,0.66193 7.510284,2.67276 9.976837,6.03519 2.498871,3.3363 3.419739,7.07016 2.765076,11.20486 -0.659454,4.16514 -2.65274,7.39246 -5.982574,9.68009 -3.515381,2.47662 -7.332367,3.38815 -11.456848,2.73434 -4.12442,-0.65377 -7.446442,-2.682 -9.966522,-6.08178 -2.520142,-3.39902 -3.461731,-7.10495 -2.828888,-11.11991 0.637421,-4.01572 2.700195,-7.2789 6.189514,-9.78781 3.352142,-2.43924 7.119567,-3.32809 11.303405,-2.66498 z" />
              <path
                 style="fill:none;stroke:#cccccc;stroke-width:1.06488502"
                 inkscape:connector-curvature="0"
                 id="path75592_1_"
                 d="m -83.064789,288.86539 c 1.455322,-4.44077 5.109894,-6.35819 9.199677,-5.71057 5.889832,0.93362 8.81012,5.69583 7.92453,11.28964 -0.864197,5.4577 -5.353088,9.09408 -11.104004,8.18304 -3.9552,-0.62567 -7.115631,-3.5777 -7.018158,-8.36926 l 4.644348,0.73627 c -0.246674,2.45556 1.225983,3.56808 3.528687,3.93243 2.617065,0.41379 4.701782,-1.70526 5.281158,-5.36124 0.608826,-3.83395 -0.543457,-6.09613 -3.305023,-6.53485 -2.023315,-0.31967 -3.883484,0.12625 -4.645569,2.54678 l 1.352112,0.20816 -4.225952,3.01206 -3.087616,-4.17032 1.45581,0.23786 z" />
            </g>
          </g>
          <g
             id="g75594_1_"
             transform="translate(-34.843494,503.01293)">
            <g
               id="g75596_1_">
              <path
                 style="fill:none;stroke:#cccccc;stroke-width:1.06488502"
                 inkscape:connector-curvature="0"
                 id="path75598_1_"
                 d="m 304.52301,297.01706 c 0.0644,-0.40363 -0.21719,-0.78372 -0.6286,-0.84888 l -4.7135,-0.74634 c -0.41046,-0.065 -0.79639,0.2092 -0.86078,0.61283 l -0.73352,4.62924 1.31518,0.20822 -0.86834,5.48331 3.57226,0.56503 0.86817,-5.48242 1.31607,0.20834 0.73306,-4.62933 0,0 z" />
              <ellipse
                 style="fill:none;stroke:#cccccc;stroke-width:1.06488502"
                 sodipodi:ry="3.415529"
                 sodipodi:rx="3.47754"
                 sodipodi:cy="293.6019"
                 sodipodi:cx="301.8851"
                 id="circle75600_1_"
                 cx="301.8851"
                 cy="293.6019"
                 rx="3.47754"
                 ry="3.415529"
                 d="m 305.36264,293.6019 c 0,1.88634 -1.55695,3.41553 -3.47754,3.41553 -1.92059,0 -3.47754,-1.52919 -3.47754,-3.41553 0,-1.88635 1.55695,-3.41553 3.47754,-3.41553 1.92059,0 3.47754,1.52918 3.47754,3.41553 z" />
            </g>
            <path
               style="fill:none;stroke:#cccccc;stroke-width:1.06488502"
               inkscape:connector-curvature="0"
               id="path75602_1_"
               d="m 302.75644,288.00797 c -3.19187,-0.50614 -6.06888,0.1593 -8.62625,1.99841 -2.62769,1.90271 -4.18726,4.40201 -4.67743,7.49527 -0.49021,3.09369 0.2232,5.93417 2.13907,8.51941 1.91733,2.58499 4.44317,4.12604 7.57763,4.62265 3.17337,0.50274 6.10196,-0.18378 8.78443,-2.06027 2.53024,-1.78449 4.04593,-4.26142 4.54803,-7.43073 0.50296,-3.16873 -0.18774,-6.02371 -2.07165,-8.56451 -1.88419,-2.54218 -4.44297,-4.06846 -7.67383,-4.58023 z m -0.29398,2.04055 c 2.61573,0.41507 4.69361,1.67227 6.23307,3.77252 1.56424,2.08417 2.13961,4.41871 1.73004,7.00281 -0.41135,2.60379 -1.65805,4.62073 -3.73871,6.05054 -2.1965,1.54706 -4.58389,2.11645 -7.16159,1.7074 -2.57663,-0.40708 -4.65244,-1.67462 -6.22784,-3.79999 -1.57642,-2.1246 -2.16578,-4.44138 -1.76737,-6.95117 0.39728,-2.50861 1.68637,-4.54715 3.86722,-6.11566 2.09509,-1.52451 4.45068,-2.08036 7.06518,-1.66645 z" />
          </g>
        </g>
      </g>
      <g
         id="g4519">
        <path
           style="fill:#333333"
           inkscape:connector-curvature="0"
           d="m 471.93118,687.65033 h 5.13086 l -0.002,1.23731 h -6.53906 l 9.7e-4,-10.41407 1.40918,-9.7e-4 v 9.17773 z"
           id="path4521" />
        <path
           style="fill:#333333"
           inkscape:connector-curvature="0"
           d="m 484.93704,686.75287 c -0.16504,0.47168 -0.79687,2.34082 -3.19531,2.34082 -2.10156,0 -3.46387,-1.39746 -3.46484,-3.74219 0,-2.62109 1.91992,-3.62207 3.41992,-3.62207 1.30469,0 2.68359,0.70606 3.10351,2.45801 0.13672,0.5918 0.13477,1.12109 0.13672,1.41504 l -5.36914,-9.8e-4 c -0.0312,1.16406 0.59766,2.60742 2.27735,2.60742 1.0664,0 1.66601,-0.69043 1.875,-1.61914 l 1.21679,0.16309 z m -1.30664,-1.99024 c -0.10351,-1.82617 -1.43945,-2.13574 -2.02344,-2.13378 -1.02148,-0.002 -1.875,0.73339 -2.01172,2.13378 h 4.03516 z"
           id="path4523" />
        <path
           style="fill:#333333"
           inkscape:connector-curvature="0"
           d="m 493.35696,681.95111 v 6.55566 c -0.002,0.80665 0.0146,1.67872 -0.4375,2.41407 -0.55371,0.95703 -1.708,1.33984 -2.833,1.33984 -0.75,0 -1.57618,-0.17578 -2.15918,-0.58789 -0.90137,-0.63574 -1.02149,-1.5918 -1.08203,-2.00488 h 1.35156 c -0.0156,0.79492 0.47851,1.63476 1.96484,1.63574 0.8086,-9.8e-4 1.25977,-0.26563 1.49805,-0.50195 0.43555,-0.45606 0.43555,-0.97168 0.45117,-2.12207 v -0.8086 c -0.25586,0.35352 -0.96094,1.22266 -2.32617,1.22266 -1.70899,0 -3.26953,-1.22266 -3.26758,-3.63672 -0.002,-2.80078 1.84375,-3.72852 3.28516,-3.72754 0.66015,0 1.5,0.20606 2.30859,1.14844 l 9.8e-4,-0.92676 h 1.24511 z m -5.61132,3.45996 c 0,0.39746 0.0312,1.19434 0.49609,1.81348 0.49414,0.64648 1.16797,0.82324 1.73828,0.82324 0.73438,0 1.32031,-0.28027 1.72656,-0.88476 0.41895,-0.61817 0.46289,-1.44141 0.46289,-1.8545 9.8e-4,-2.35742 -1.7832,-2.51855 -2.26367,-2.51953 -1.29004,0.0156 -2.15918,1.0166 -2.16015,2.62207 z"
           id="path4525" />
        <path
           style="fill:#333333"
           inkscape:connector-curvature="0"
           d="m 499.89407,684.73334 0.002,-0.17676 c 0,-0.72266 0,-1.92773 -1.58985,-1.92773 -1.51465,0 -1.51562,1.08789 -1.51562,1.45507 l -1.25879,-0.0713 c 0.0283,-0.25097 0.0586,-0.63476 0.2832,-1.04687 0.4209,-0.76465 1.24512,-1.23731 2.44629,-1.23633 0.66016,0 1.51367,0.15918 2.06934,0.58789 0.78027,0.61914 0.77929,1.41406 0.76464,2.34278 v 2.25293 c 0.0137,0.66308 0.0156,1.00097 0.51075,1.00097 0.15039,0 0.28418,-0.0283 0.38964,-0.0732 v 1.0166 c -0.19531,0.0449 -0.40429,0.11719 -0.75,0.11719 -0.55468,0 -1.10937,-0.17578 -1.23046,-1.0293 -0.35938,0.36817 -1.07911,1.13477 -2.42872,1.13477 -1.38085,0 -2.40136,-0.81152 -2.40136,-1.99023 0,-0.36719 0.10547,-0.73536 0.3164,-1.04493 0.40332,-0.58886 1.15332,-1.06054 3.26953,-1.22265 l 1.12305,-0.0889 z m -1.84375,1.07519 c -1.32031,0.28028 -1.54492,0.76661 -1.54492,1.25196 0,0.56054 0.45117,1.0332 1.33594,1.03222 0.82422,0 1.53027,-0.32422 1.87305,-1.04687 0.18261,-0.38184 0.19531,-0.54492 0.19531,-1.56055 -0.46387,0.0732 -1.09277,0.16211 -1.85938,0.32324 z"
           id="path4527" />
        <path
           style="fill:#333333"
           inkscape:connector-curvature="0"
           d="m 504.76028,678.4892 -9.7e-4,10.39844 h -1.15625 v -10.39942 l 1.15722,9.8e-4 z"
           id="path4529" />
        <path
           style="fill:#333333"
           inkscape:connector-curvature="0"
           d="m 521.67969,685.1181 c -0.45117,1.97364 -2.14649,4.03418 -5.2207,4.03418 -3.49415,0 -5.17429,-2.57617 -5.17527,-5.46484 9.8e-4,-2.94629 1.72605,-5.46582 5.37058,-5.46582 3.66015,0 4.56055,2.49121 4.8125,3.18359 l -1.42383,0.29395 c -0.13281,-0.38184 -0.23828,-0.72168 -0.62891,-1.16504 -0.51171,-0.61816 -1.43945,-1.20703 -2.77539,-1.20703 -1.125,-9.8e-4 -2.2207,0.44336 -2.91015,1.31152 -0.67383,0.8252 -0.88281,1.91602 -0.88477,2.97559 0,2.57812 1.33399,4.38867 3.78125,4.38964 1.57422,-9.7e-4 3.17774,-0.86914 3.50781,-3.06445 l 1.54688,0.17871 z"
           id="path4531" />
        <path
           style="fill:#333333"
           inkscape:connector-curvature="0"
           d="m 526.56055,689.09369 c -2.44531,0 -3.47852,-1.79688 -3.47852,-3.62402 0,-1.54688 0.7793,-3.74024 3.52539,-3.74024 2.33985,0 3.41992,1.78125 3.4043,3.68164 -0.0156,2.10742 -1.29102,3.68262 -3.45117,3.68262 z m 2.07031,-4.6543 c -0.26953,-1.37207 -1.18359,-1.7666 -1.99414,-1.7666 -1.60547,-9.8e-4 -2.25195,1.22168 -2.25,2.8125 -0.002,1.45898 0.61328,2.66602 2.16015,2.66602 1.99219,-9.8e-4 2.14454,-2.03223 2.15821,-2.74024 0.0176,-0.4414 -0.0293,-0.76465 -0.0742,-0.97168 z"
           id="path4533" />
        <path
           style="fill:#333333"
           inkscape:connector-curvature="0"
           d="m 538.43555,678.47259 v 10.41504 h -1.19922 l -0.002,-0.89843 c -0.28516,0.33789 -0.94532,1.10449 -2.42969,1.10449 -2.03906,0 -3.24024,-1.50196 -3.23828,-3.71192 0,-2.70996 1.79882,-3.65234 3.22461,-3.65234 0.46484,-9.8e-4 1.63476,0.10254 2.44335,1.13281 v -4.38965 h 1.20118 z m -5.59375,6.95508 c -0.002,1.42676 0.67382,2.62012 2.20312,2.62012 1.36524,0 2.21875,-1.00195 2.2207,-2.66699 -0.002,-1.95801 -1.21679,-2.57617 -2.17578,-2.5918 -0.91406,-0.0146 -2.25,0.5293 -2.24804,2.63867 z"
           id="path4535" />
        <path
           style="fill:#333333"
           inkscape:connector-curvature="0"
           d="m 547.02344,686.75092 c -0.16406,0.47363 -0.79492,2.34277 -3.19531,2.34277 -2.09961,0 -3.46485,-1.39844 -3.46289,-3.74121 -0.002,-2.62207 1.91992,-3.62305 3.41992,-3.62305 1.30469,0 2.68359,0.70606 3.10351,2.45898 0.13672,0.59082 0.13477,1.12012 0.13672,1.41407 h -5.37109 c -0.0312,1.16308 0.59961,2.60644 2.2793,2.60644 1.06445,0 1.66601,-0.6914 1.875,-1.61914 l 1.21484,0.16114 z m -1.30469,-1.98829 c -0.10352,-1.82617 -1.43945,-2.13378 -2.02344,-2.13378 -1.02148,-0.002 -1.875,0.73339 -2.01172,2.13378 h 4.03516 z"
           id="path4537" />
      </g>
    </g>
  </g>
</svg>
