<?xml version="1.0" encoding="UTF-8" standalone="no"?>
<!-- Created with Inkscape (http://www.inkscape.org/) -->

<svg
   xmlns:dc="http://purl.org/dc/elements/1.1/"
   xmlns:cc="http://creativecommons.org/ns#"
   xmlns:rdf="http://www.w3.org/1999/02/22-rdf-syntax-ns#"
   xmlns:svg="http://www.w3.org/2000/svg"
   xmlns="http://www.w3.org/2000/svg"
   xmlns:sodipodi="http://sodipodi.sourceforge.net/DTD/sodipodi-0.dtd"
   xmlns:inkscape="http://www.inkscape.org/namespaces/inkscape"
   width="173.94516"
   height="181.23"
   id="svg4947"
   version="1.1"
   inkscape:version="0.48.0 r9654"
   sodipodi:docname="New document 16">
  <defs
     id="defs4949" />
  <sodipodi:namedview
     id="base"
     pagecolor="#ffffff"
     bordercolor="#666666"
     borderopacity="1.0"
     inkscape:pageopacity="0.0"
     inkscape:pageshadow="2"
     inkscape:zoom="0.35"
     inkscape:cx="67.68686"
     inkscape:cy="193.47214"
     inkscape:document-units="px"
     inkscape:current-layer="layer1"
     showgrid="false"
     fit-margin-top="0"
     fit-margin-left="0"
     fit-margin-right="0"
     fit-margin-bottom="0"
     inkscape:window-width="515"
     inkscape:window-height="459"
     inkscape:window-x="0"
     inkscape:window-y="49"
     inkscape:window-maximized="0" />
  <metadata
     id="metadata4952">
    <rdf:RDF>
      <cc:Work
         rdf:about="">
        <dc:format>image/svg+xml</dc:format>
        <dc:type
           rdf:resource="http://purl.org/dc/dcmitype/StillImage" />
        <dc:title></dc:title>
      </cc:Work>
    </rdf:RDF>
  </metadata>
  <g
     inkscape:label="Layer 1"
     inkscape:groupmode="layer"
     id="layer1"
     transform="translate(-307.31314,-544.60432)">
    <g
       transform="translate(-118.61845,503.20116)"
       id="g4305">
      <g
         id="g75574_4_"
         transform="matrix(0.9826883,-0.1545343,0.1545343,0.9826883,444.23578,-664.84077)">
        <g
           style="opacity:0.75"
           id="g75578_4_">
          <g
             id="path75580_4_"
             nodetypes="ccccccc">
            <path
               style="fill:#2b8ded"
               inkscape:connector-curvature="0"
               d="m -124.2229,700.17224 c -1.83868,-0.28912 -3.54901,0.9306 -3.83569,2.74085 L -155.6315,876.94226 14.24707,903.85254 41.823242,729.8219 c 0.284241,-1.80768 -0.964355,-3.49866 -2.800659,-3.79041 L -124.2229,700.17224 z"
               id="path4310" />
            <g
               id="g4312">
              <path
                 style="fill:none"
                 inkscape:connector-curvature="0"
                 d="m -124.2229,700.17224 c -1.83868,-0.28912 -3.54901,0.9306 -3.83569,2.74085 L -155.6315,876.94226 14.24707,903.85254 41.823242,729.8219 c 0.284241,-1.80768 -0.964355,-3.49866 -2.800659,-3.79041 L -124.2229,700.17224 z"
                 id="path4314" />
              <g
                 id="g4316">
                <g
                   style="opacity:0.7"
                   id="g4318">
                  <g
                     id="g4320">
                    <line
                       style="fill:none;stroke:#ffffff;stroke-width:0"
                       x1="-63.617981"
                       y1="890.94495"
                       x2="-63.617981"
                       y2="890.94495"
                       id="line4322" />
                    <line
                       style="fill:none;stroke:#ffffff;stroke-width:0"
                       x1="-74.067993"
                       y1="889.12219"
                       x2="-74.067993"
                       y2="889.12219"
                       id="line4324" />
                    <path
                       style="fill:#ffffff"
                       inkscape:connector-curvature="0"
                       d="m -135.06665,742.00537 c -0.85547,5.20606 -1.65997,10.52088 -2.3941,15.51489 -1.56403,10.63727 -3.37506,19.47425 -4.87604,29.8631 -1.88214,13.02692 -4.24695,25.7583 -6.27191,39.29853 -1.85846,12.42492 -3.72834,25.04834 -5.65064,37.70532 l -1.45257,9.49603 -0.36689,2.37402 -0.0918,0.59375 c 1.09283,1.29084 0.64346,0.41077 1.04156,0.72284 l 1.18643,0.18408 4.74546,0.74128 18.91333,3.03979 c 47.329524,7.80512 90.378718,14.62854 135.957942,22.36261 l 5.009339,0.84839 2.533447,0.42773 0.636108,0.10694 0.159729,0.0272 c 3.38501,-2.45398 0.940552,-0.6919 1.697266,-1.24469 l 0.0031,-0.0198 0.0063,-0.0398 0.01355,-0.0798 0.05408,-0.31891 0.214905,-1.27795 c 0.574646,-3.41418 1.154419,-6.87378 1.736572,-10.3667 1.165161,-6.98633 2.343506,-14.1062 3.516357,-21.26721 2.345398,-14.32098 4.673767,-28.80469 6.849182,-42.70129 3.186584,-20.33967 9.912598,-61.41718 12.236084,-78.91578 -3.547424,23.38605 -7.598816,47.96076 -11.416565,70.87293 3.939941,-25.18652 7.992249,-50.90497 11.990234,-76.52417 l 1.496033,-9.60156 c 0.161377,-1.76581 0.695374,-2.82324 0.548523,-5.16919 -0.195312,-2.27173 -2.660095,-3.78674 -4.376221,-3.88867 l -19.0896,-2.94879 c -12.6809,-1.95055 -25.257865,-3.8662 -37.651725,-5.72674 l 34.849182,5.34802 17.42157,2.71186 4.352844,0.68151 c 1.409241,0.10035 3.828186,1.1233 4.250793,3.13154 0.414368,3.91796 -0.671082,6.08111 -0.934937,9.20581 -3.659973,23.17944 -7.371704,46.26428 -11.112244,69.1026 -3.739624,22.8385 -7.507019,45.4306 -11.276367,67.62439 l -2.827087,16.56823 -1.412354,8.22339 c -0.487915,2.67902 -0.259644,6.47235 -3.924927,4.65424 -10.878906,-1.88214 -21.639038,-3.7616 -32.261841,-5.63538 6.223267,1.0279 12.561584,2.0763 19.00061,3.14154 l 9.733093,1.6106 c 3.248474,-0.14404 7.395447,3.14801 6.791565,-1.93463 2.19342,-13.25281 4.443054,-26.85053 6.723267,-40.6745 4.561462,-27.64777 9.246399,-56.20081 13.857178,-84.71185 2.304321,-14.25538 4.591187,-28.50068 6.832886,-42.61689 0.143799,-1.59027 1.095154,-3.75366 -0.371033,-5.55236 -1.438232,-1.75513 -3.636658,-1.50751 -5.230591,-1.88044 l -10.502441,-1.65362 c -6.978821,-1.09595 -13.910217,-2.17749 -20.78064,-3.24201 -27.480835,-4.25793 -53.972412,-8.24102 -78.528259,-11.74884 -7.442993,-1.06359 -15.722656,-2.21014 -21.972656,-3.02746 24.37323,3.37067 50.522644,7.22595 77.630005,11.37848 13.554504,2.07593 27.347778,4.22607 41.278137,6.42669 l 10.472656,1.65973 5.256165,0.85242 c 1.995178,0.28644 3.353394,2.42395 2.952148,4.33698 L 38.7124,751.19007 c -4.557922,28.20636 -9.224365,56.55359 -13.810181,84.22339 -2.292969,13.83532 -4.566162,27.50097 -6.794678,40.89526 -1.114807,6.69708 -2.217957,13.32642 -3.30835,19.87476 l -0.814697,4.89642 -0.405029,2.43665 c 1.195679,-0.79731 -1.064636,-0.45319 -1.424683,-0.73536 l -9.630371,-1.6004 c -46.824585,-7.77734 -93.99762,-15.55383 -141.978581,-23.15039 l -9.78045,-1.58429 -4.89856,-0.79114 -1.22504,-0.19769 -0.0194,-0.003 -0.01,-0.002 c 0.55719,0.76984 -1.26074,-1.72418 1.24722,1.7251 l 0.006,-0.0383 0.0125,-0.0765 0.0247,-0.15368 0.0491,-0.30628 0.0988,-0.61249 0.39539,-2.45111 3.15033,-19.61291 c 4.29938,-26.81848 8.59192,-53.83081 12.75842,-80.64478 1.84967,-11.90411 4.44245,-28.46142 6.62726,-43.19482 1.09277,-7.36639 2.08319,-14.27728 2.82776,-19.92206 0.39111,-2.78766 0.64056,-5.40674 0.95727,-7.33844 0.35144,-1.6759 1.96527,-2.23157 2.9455,-2.24689 -4.32507,-0.42822 -3.49164,5.56458 -4.3999,9.07489 -0.61347,3.9834 -1.22467,7.92994 -1.83997,11.59308 0.34961,-2.78869 0.74335,-5.99078 1.20124,-9.28173 -0.49122,3.1267 -1.07276,6.58795 -1.47669,9.51025 0.32935,-2.41974 0.65613,-4.89252 0.70215,-5.8363 -0.62097,3.75616 -1.31818,9.10284 -1.72534,12.07122 -0.23804,1.73798 -1.26435,9.74634 -1.66437,12.01831 0.74554,-5.94177 1.75006,-13.4353 2.28369,-18.28845 l -0.97308,6.05207 c 0.29998,-2.47352 1.02441,-7.28522 1.10388,-8.55561 -0.79108,5.08435 -1.43585,9.58911 -2.27423,14.85388 -0.67963,4.26819 -1.30542,8.10859 -1.89734,12.20124 0.68188,-4.8924 1.65625,-11.45807 2.0238,-14.85358 -0.39587,2.24872 -0.74957,4.63037 -1.09759,6.95721 0.0283,-0.28424 0.0362,-0.45446 0.0254,-0.51525 -0.16071,1.03155 -0.40076,2.39056 -0.56354,3.46356 -0.0321,0.0237 -0.0956,0.25726 -0.0911,0.0453 l 0.0496,0.0674"
                       id="path4326" />
                    <line
                       style="fill:#ffffff"
                       x1="-135.06665"
                       y1="742.00537"
                       x2="-135.06665"
                       y2="742.00537"
                       id="line4328" />
                    <path
                       style="fill:#ffffff"
                       inkscape:connector-curvature="0"
                       d="m -132.02869,735.14221 c -0.78686,5.05426 -1.9068,12.22656 -2.69281,16.83923"
                       id="path4330" />
                    <path
                       style="fill:none;stroke:#ffffff;stroke-width:0"
                       inkscape:connector-curvature="0"
                       d="m 7.734192,902.29614 c 0,0 1.051208,0.17224 3.042236,0.49732 0.698181,0.27478 2.891296,0.1109 3.011292,0.85217 0.236206,-1.45154 0.509033,-3.12329 0.815491,-5.00256 1.223694,-7.51618 2.983032,-18.34339 5.125061,-31.58588 4.285278,-26.48523 10.101807,-62.63257 16.230286,-101.28137 1.531372,-9.66211 3.083374,-19.4809 4.635315,-29.34345 0.317627,-2.44983 0.9328,-4.97119 1.005554,-7.36767 -0.08008,-2.80854 -3.346924,-2.97693 -5.64209,-3.31445 l -14.796448,-2.31147 c -19.680359,-3.06604 -39.090332,-6.05676 -57.336548,-8.8208 -36.490845,-5.52777 -68.322881,-10.14593 -88.334231,-12.63354"
                       id="path4332" />
                  </g>
                  <path
                     style="fill:none;stroke:#ffffff;stroke-width:0"
                     inkscape:connector-curvature="0"
                     d="m 32.927856,789.76874 c -0.102539,-0.10016 4.370361,-25.21283 9.44458,-61.18964 -0.53949,-3.04034 -4.049316,-3.32593 -6.005859,-3.56701 l -6.98999,-1.08185 c -4.726807,-0.73041 -9.5802,-1.47675 -14.532227,-2.23456 -9.904114,-1.51526 -20.197632,-3.07538 -30.643127,-4.63654 -20.891663,-3.12335 -42.386658,-6.25262 -62.567993,-9.04614"
                     id="path4334" />
                </g>
              </g>
            </g>
          </g>
          <g
             id="rect75582_6_">
            <line
               style="fill:none"
               x1="17.026367"
               y1="886.30542"
               x2="-152.85333"
               y2="859.39594"
               id="line4337" />
            <g
               id="g4339">
              <g
                 style="opacity:0.7"
                 id="g4341">
                <g
                   id="g4343">
                  <line
                     style="fill:none;stroke:#ffffff;stroke-width:0"
                     x1="-49.665344"
                     y1="876.31458"
                     x2="-49.665344"
                     y2="876.31458"
                     id="line4345" />
                  <line
                     style="fill:none;stroke:#ffffff;stroke-width:0"
                     x1="-47.117554"
                     y1="876.88519"
                     x2="-47.117554"
                     y2="876.88519"
                     id="line4347" />
                  <path
                     style="fill:#ffffff"
                     inkscape:connector-curvature="0"
                     d="m 6.253845,883.78455 c -1.275208,-0.23237 -2.585083,-0.40259 -3.819519,-0.54053 -2.626831,-0.2948 -4.750305,-1.04218 -7.319641,-1.30463 -3.221863,-0.32824 -6.309143,-1.16449 -9.649475,-1.57354 -6.130615,-0.75141 -12.466919,-1.4527 -18.61731,-2.59034 -11.592041,-2.14386 -22.167908,-3.82336 -33.305542,-6.10156 -6.475342,-1.32434 -13.859009,-2.67682 -20.693481,-3.70788 -5.001099,-0.75513 -15.067807,-2.56678 -19.419437,-2.80732 5.76386,0.75483 11.783328,1.86591 17.390445,2.94147 -12.387385,-1.86059 -25.285095,-3.91363 -37.512755,-5.44055 22.88513,3.02893 45.867797,7.1723 66.567504,11.97827 -24.381104,-4.53723 -55.986814,-10.70844 -80.296694,-13.03168 -1.84204,-0.17639 -3.89538,-0.3363 -5.45093,-0.40997 24.18061,1.86865 54.963078,8.04254 79.929508,12.78155 11.461914,2.17512 23.015808,4.30903 34.804932,6.17243 l 9.616577,1.63104 c 6.582825,1.09283 13.217957,2.15607 19.815125,3.11951 5.857849,0.85565 16.286011,2.45721 18.66925,1.8114 -1.869751,-0.33179 -3.961914,-0.53858 -5.754761,-0.89203 0.696716,0.0182 1.496704,0.0311 2.312073,0.0972 -0.768494,-0.11786 -1.614685,-0.28522 -2.340393,-0.3407 0.601685,0.0414 1.216797,0.0735 1.46051,0.009 -0.920105,-0.17157 -2.25116,-0.2323 -2.987976,-0.28614 -0.431396,-0.031 -2.427246,-0.10437 -2.980591,-0.23211 1.482544,0.0389 3.345032,0.15136 4.565125,0.10919 L 9.75116,884.92682 c 0.618225,0.006 1.804993,0.15613 2.131042,0.0857 -1.251099,-0.18384 -2.365967,-0.29156 -3.658875,-0.50036 -1.047607,-0.16919 -1.98938,-0.3357 -3.001587,-0.4397 1.212769,0.0987 2.833313,0.28998 3.687683,0.25445 -0.547607,-0.12646 -1.135986,-0.19555 -1.70929,-0.2658 l 0.132751,-0.0353 -0.84906,-0.14887 c -0.0025,-0.0288 -0.05658,-0.064 -0.00165,-0.0848 l -0.023804,0.0569"
                     id="path4349" />
                  <line
                     style="fill:#ffffff"
                     x1="6.2538452"
                     y1="883.78455"
                     x2="6.2538452"
                     y2="883.78455"
                     id="line4351" />
                  <path
                     style="fill:#ffffff"
                     inkscape:connector-curvature="0"
                     d="M 7.712524,885.96619 C 6.469238,885.78308 4.704956,885.52008 3.578857,885.28687"
                     id="path4353" />
                  <path
                     style="fill:none;stroke:#ffffff;stroke-width:0"
                     inkscape:connector-curvature="0"
                     d="m -67.189392,873.48975 c 0,0 -65.966918,-11.84449 -85.950898,-12.28156"
                     id="path4355" />
                </g>
                <path
                   style="fill:none;stroke:#ffffff;stroke-width:0"
                   inkscape:connector-curvature="0"
                   d="m -96.686462,867.68897 c 0,0 -24.947628,-4.38483 -44.968078,-5.94214"
                   id="path4357" />
              </g>
            </g>
          </g>
          <g
             id="rect75582_4_">
            <line
               style="fill:none"
               x1="-132.2182"
               y1="729.18109"
               x2="37.656677"
               y2="756.08978"
               id="line4360" />
            <g
               id="g4362">
              <g
                 style="opacity:0.7"
                 id="g4364">
                <g
                   id="g4366">
                  <line
                     style="fill:none;stroke:#ffffff;stroke-width:0"
                     x1="-65.528442"
                     y1="739.17157"
                     x2="-65.528442"
                     y2="739.17157"
                     id="line4368" />
                  <line
                     style="fill:none;stroke:#ffffff;stroke-width:0"
                     x1="-68.076172"
                     y1="738.60101"
                     x2="-68.076172"
                     y2="738.60101"
                     id="line4370" />
                  <path
                     style="fill:#ffffff"
                     inkscape:connector-curvature="0"
                     d="m -121.44617,731.70184 c 1.27521,0.23236 2.58557,0.40265 3.81903,0.54047 2.62781,0.29498 4.7508,1.04224 7.32013,1.30469 3.22138,0.32824 6.30866,1.16455 9.64899,1.57354 6.130615,0.75135 12.466431,1.45258 18.616821,2.59021 11.592041,2.14386 22.167419,3.82337 33.305054,6.10151 6.474365,1.32421 13.858032,2.67663 20.692017,3.70764 5.001099,0.75512 15.068298,2.56683 19.418945,2.80731 -5.763428,-0.75482 -11.782776,-1.86591 -17.389465,-2.94135 12.386902,1.86042 25.28418,3.91352 37.51178,5.44037 -22.885132,-3.02893 -45.866333,-7.17205 -66.565979,-11.97796 24.381042,4.53711 55.985352,10.70807 80.29425,13.03119 1.842529,0.17645 3.895386,0.3363 5.450867,0.40997 -24.179626,-1.86847 -54.961548,-8.0423 -79.927063,-12.78119 -11.461914,-2.17511 -23.01532,-4.30896 -34.803467,-6.17218 l -9.616638,-1.63098 c -6.582762,-1.09283 -13.217402,-2.15607 -19.814572,-3.11945 -5.85736,-0.85553 -16.28504,-2.45709 -18.66828,-1.81128 1.86927,0.33173 3.96192,0.53858 5.75379,0.89191 -0.6958,-0.0181 -1.49573,-0.031 -2.31165,-0.0972 0.76856,0.1178 1.61475,0.28516 2.33997,0.34058 -0.60071,-0.0413 -1.21625,-0.0735 -1.46003,-0.008 0.91962,0.17144 2.25061,0.23223 2.98749,0.28601 0.4314,0.0311 2.42725,0.10443 2.98059,0.23217 -1.48254,-0.0388 -3.34509,-0.15142 -4.56463,-0.10913 l 1.48523,0.24945 c -0.61866,-0.006 -1.805,-0.15612 -2.13104,-0.0856 1.25054,0.18372 2.36553,0.29144 3.65832,0.50025 1.04816,0.16925 1.98944,0.33563 3.00165,0.43975 -1.21277,-0.0989 -2.83338,-0.2901 -3.68762,-0.25451 0.54754,0.1264 1.13592,0.19555 1.70971,0.26593 l -0.13324,0.0352 0.84955,0.14905 c 0.002,0.0286 0.0565,0.064 10e-4,0.0846 l 0.0239,-0.0568"
                     id="path4372" />
                  <line
                     style="fill:#ffffff"
                     x1="-121.44617"
                     y1="731.70184"
                     x2="-121.44617"
                     y2="731.70184"
                     id="line4374" />
                  <path
                     style="fill:#ffffff"
                     inkscape:connector-curvature="0"
                     d="m -122.90479,729.5202 c 1.24323,0.18317 3.00708,0.44605 4.13404,0.67945"
                     id="path4376" />
                  <path
                     style="fill:none;stroke:#ffffff;stroke-width:0"
                     inkscape:connector-curvature="0"
                     d="m -48.004883,741.99634 c 0,0 65.964966,11.84424 85.948486,12.28119"
                     id="path4378" />
                </g>
                <path
                   style="fill:none;stroke:#ffffff;stroke-width:0"
                   inkscape:connector-curvature="0"
                   d="m -18.508789,747.79706 c 0,0 24.946655,4.38458 44.966675,5.94183"
                   id="path4380" />
              </g>
            </g>
          </g>
        </g>
        <g
           style="opacity:0.5;display:none"
           id="g75584_4_"
           transform="matrix(2.1424816,0,0,2.1424816,-735.63382,-432.10572)"
           display="none">
          <g
             style="display:inline"
             id="g75586_4_"
             transform="matrix(0.624995,0,0,0.624995,356.3859,679.94613)"
             display="inline">
            <g
               id="g75588_4_"
               transform="translate(-23.9521,-89.72962)">
              <path
                 style="fill:#ffffff"
                 inkscape:connector-curvature="0"
                 id="path75590_4_"
                 d="m -14.825653,-91.694153 c -5.110779,-0.809631 -9.709076,0.256592 -13.800323,3.195526 -4.20639,3.047791 -6.700867,7.046051 -7.485352,11.996765 -0.784485,4.950714 0.35791,9.494202 3.424194,13.629974 3.06488,4.135559 7.10614,6.60199 12.122742,7.39682 5.077576,0.80365 9.762787,-0.296387 14.05542,-3.297943 4.048157,-2.853729 6.473572,-6.818359 7.276703,-11.887817 0.80304,-5.068756 -0.302338,-9.639801 -3.317261,-13.705933 -3.013458,-4.065856 -7.107574,-6.507903 -12.276123,-7.327392 z m -0.470734,3.267151 c 4.185516,0.661865 7.510254,2.672729 9.975494,6.03418 2.500183,3.33728 3.421051,7.071106 2.764954,11.205627 -0.65799,4.165344 -2.651306,7.39267 -5.981018,9.679596 -3.515381,2.476593 -7.333893,3.388641 -11.45816,2.733368 -4.12323,-0.6521 -7.446594,-2.681274 -9.965332,-6.080078 -2.521484,-3.400024 -3.461609,-7.105713 -2.828766,-11.120667 0.637299,-4.015015 2.700195,-7.27887 6.18808,-9.788025 3.352142,-2.439208 7.119446,-3.327362 11.304748,-2.664001 z" />
              <path
                 style="fill:#ffffff"
                 inkscape:connector-curvature="0"
                 id="path75592_4_"
                 d="m -25.461578,-77.43576 c 1.453888,-4.440948 5.108307,-6.357666 9.199677,-5.710571 5.888245,0.934143 8.809998,5.696564 7.923065,11.289459 -0.862762,5.457886 -5.35321,9.094788 -11.102631,8.18399 -3.955231,-0.625702 -7.117126,-3.577972 -7.018097,-8.370026 l 4.644379,0.736267 c -0.246887,2.457031 1.225861,3.568817 3.527161,3.932922 2.618347,0.414734 4.701843,-1.705963 5.281128,-5.361206 0.608826,-3.833954 -0.542023,-6.095886 -3.305023,-6.534882 -2.021759,-0.32016 -3.88205,0.126495 -4.644012,2.546295 l 1.350525,0.208679 -4.224365,3.011536 -3.087738,-4.169586 1.455931,0.237123 z" />
            </g>
          </g>
          <g
             style="display:inline"
             id="g75594_4_"
             transform="translate(-34.843494,503.01293)"
             display="inline">
            <g
               id="g75596_4_">
              <path
                 style="fill:#ffffff"
                 inkscape:connector-curvature="0"
                 id="path75598_4_"
                 d="m 340.52515,68.081207 c 0.0635,-0.403748 -0.21814,-0.783875 -0.62903,-0.849396 l -4.71399,-0.745972 c -0.4104,-0.06543 -0.79547,0.209351 -0.85993,0.612976 l -0.73352,4.629242 1.31513,0.208649 -0.86957,5.482239 3.57269,0.565048 0.86859,-5.481888 1.31611,0.207916 0.73352,-4.628814 0,0 z" />
              <ellipse
                 style="fill:#ffffff"
                 sodipodi:ry="3.415041"
                 sodipodi:rx="3.4785171"
                 sodipodi:cy="64.665741"
                 sodipodi:cx="337.88678"
                 id="circle75600_4_"
                 cx="337.88678"
                 cy="64.665741"
                 rx="3.4785171"
                 ry="3.415041"
                 d="m 341.3653,64.665741 c 0,1.886075 -1.55739,3.415041 -3.47852,3.415041 -1.92113,0 -3.47852,-1.528966 -3.47852,-3.415041 0,-1.886075 1.55739,-3.415041 3.47852,-3.415041 1.92113,0 3.47852,1.528966 3.47852,3.415041 z" />
            </g>
            <path
               style="fill:#ffffff"
               inkscape:connector-curvature="0"
               id="path75602_4_"
               d="m 338.75818,59.071594 c -3.19196,-0.505676 -6.06897,0.15976 -8.6272,1.99823 -2.6272,1.902832 -4.1864,4.402618 -4.67663,7.496338 -0.49054,3.092743 0.22277,5.933685 2.13909,8.518982 1.91779,2.585052 4.44373,4.125641 7.57728,4.622101 3.17431,0.502899 6.10235,-0.183243 8.78436,-2.059799 2.5307,-1.784409 4.04675,-4.260818 4.54901,-7.431046 0.50201,-3.168854 -0.18817,-6.023773 -2.07263,-8.564209 -1.88416,-2.542175 -4.44208,-4.068298 -7.67328,-4.580597 z m -0.29407,2.041016 c 2.61572,0.415039 4.69367,1.671814 6.23352,3.772583 1.56385,2.083649 2.13916,4.41864 1.72992,7.003265 -0.41217,2.603638 -1.6579,4.620255 -3.73907,6.050018 -2.19696,1.546951 -4.58436,2.116379 -7.1612,1.707901 -2.57696,-0.408035 -4.65277,-1.675598 -6.22906,-3.801102 -1.57599,-2.124512 -2.16492,-4.440765 -1.76642,-6.95105 0.39673,-2.508179 1.68628,-4.546692 3.86676,-6.115692 2.09589,-1.523925 4.45056,-2.079925 7.06555,-1.665923 z" />
          </g>
        </g>
        <g
           style="opacity:0.67000002"
           id="g4392">
          <rect
             style="fill:#ffffff"
             x="-119.54517"
             y="772.02356"
             width="5.6162109"
             height="38.916992"
             id="rect4394" />
          <rect
             style="fill:#ffffff"
             x="-109.09778"
             y="773.47021"
             width="3.1201169"
             height="38.916992"
             id="rect4396" />
          <rect
             style="fill:#ffffff"
             x="-101.13831"
             y="774.72241"
             width="3.1201169"
             height="38.916992"
             id="rect4398" />
          <rect
             style="fill:#ffffff"
             x="-93.186951"
             y="776.16803"
             width="5.6152339"
             height="38.917969"
             id="rect4400" />
          <rect
             style="fill:#ffffff"
             x="-82.739197"
             y="777.61682"
             width="3.121094"
             height="38.916016"
             id="rect4402" />
          <rect
             style="fill:#ffffff"
             x="-74.788269"
             y="779.06238"
             width="5.6162109"
             height="38.916992"
             id="rect4404" />
          <rect
             style="fill:#ffffff"
             x="-64.34082"
             y="780.50897"
             width="3.1191411"
             height="38.916992"
             id="rect4406" />
          <rect
             style="fill:#ffffff"
             x="-56.381348"
             y="781.76129"
             width="3.121094"
             height="38.916016"
             id="rect4408" />
          <rect
             style="fill:#ffffff"
             x="-48.422302"
             y="783.01276"
             width="3.1191411"
             height="38.916016"
             id="rect4410" />
          <rect
             style="fill:#ffffff"
             x="-40.469971"
             y="784.45856"
             width="5.6152339"
             height="38.916992"
             id="rect4412" />
          <rect
             style="fill:#ffffff"
             x="-30.031067"
             y="786.09967"
             width="5.6152349"
             height="38.916992"
             id="rect4414" />
          <rect
             style="fill:#ffffff"
             x="-19.584778"
             y="787.5473"
             width="3.121094"
             height="38.916016"
             id="rect4416" />
          <rect
             style="fill:#ffffff"
             x="-11.632568"
             y="788.99542"
             width="5.6152339"
             height="38.915039"
             id="rect4418" />
          <rect
             style="fill:#ffffff"
             x="-1.185059"
             y="790.44012"
             width="3.1191411"
             height="38.916992"
             id="rect4420" />
        </g>
      </g>
      <g
         id="g4422">
        <path
           style="fill:#f2f2f2"
           inkscape:connector-curvature="0"
           d="m 458.62161,184.02679 v 11.19141 h -1.50097 l 0.20996,-9.38477 -3.60059,9.38477 h -1.17773 l -3.53614,-9.24316 0.16211,9.24316 -1.48437,0.002 -9.8e-4,-11.19433 h 1.9541 l 3.50196,9.17968 3.51953,-9.17968 1.95312,9.7e-4 z"
           id="path4424" />
        <path
           style="fill:#f2f2f2"
           inkscape:connector-curvature="0"
           d="m 465.64505,190.74847 -9.8e-4,-0.19043 c 9.8e-4,-0.77636 9.8e-4,-2.07714 -1.70898,-2.07617 -1.63184,-9.8e-4 -1.63184,1.17188 -1.63184,1.56836 l -1.35547,-0.0791 c 0.0322,-0.26856 0.0645,-0.68164 0.30665,-1.125 0.45214,-0.82422 1.33886,-1.33301 2.63085,-1.33301 0.71094,9.8e-4 1.62989,0.17481 2.22657,0.63477 0.84082,0.66699 0.83984,1.52246 0.82422,2.52148 v 2.42578 c 0.0156,0.71289 0.0156,1.07715 0.54882,1.07813 0.16211,-9.8e-4 0.30664,-0.0322 0.41993,-0.0801 v 1.09375 c -0.20899,0.0479 -0.43555,0.12695 -0.8086,0.12695 -0.5957,0 -1.19336,-0.18945 -1.32227,-1.11035 -0.38769,0.39746 -1.1621,1.2207 -2.61523,1.22168 -1.48633,0 -2.58301,-0.87207 -2.58301,-2.13965 9.8e-4,-0.39648 0.11231,-0.79297 0.33887,-1.12695 0.43555,-0.63379 1.24219,-1.1416 3.51953,-1.31543 l 1.21094,-0.0947 z m -1.98535,1.15723 c -1.4209,0.30078 -1.66406,0.82324 -1.66309,1.34766 0,0.60254 0.48438,1.10937 1.43652,1.10937 0.8877,0 1.64649,-0.34863 2.01856,-1.12598 0.19238,-0.4121 0.20898,-0.58593 0.20898,-1.68066 -0.50097,0.0791 -1.17773,0.17481 -2.00097,0.34961 z"
           id="path4426" />
        <path
           style="fill:#f2f2f2"
           inkscape:connector-curvature="0"
           d="m 476.14993,192.52386 c -0.0488,0.30079 -0.12988,0.7129 -0.43652,1.26758 -0.63086,1.1416 -1.71094,1.64942 -3.11523,1.64942 -2.79297,0 -3.79493,-2.0459 -3.79493,-3.88477 0.002,-2.12402 1.14649,-4.04199 3.68164,-4.04199 1.22657,0 3.01954,0.42871 3.51954,2.5039 l -1.4209,0.12793 c -0.0488,-0.30175 -0.32324,-1.71191 -2.04981,-1.71191 -2.21289,-9.8e-4 -2.30859,2.36133 -2.30859,3.02734 0,0.8086 0.16113,1.50684 0.5,2.0127 0.43555,0.68262 1.09765,0.99902 1.88867,0.99902 1.85645,9.8e-4 2.06641,-1.48926 2.14648,-2.07715 l 1.38965,0.12793 z"
           id="path4428" />
        <path
           style="fill:#f2f2f2"
           inkscape:connector-curvature="0"
           d="m 477.8013,184.01019 h 1.30664 l 0.002,4.48633 c 0.80665,-0.83984 1.58106,-0.98242 2.30665,-0.98242 1.67968,0 2.34179,0.91992 2.56738,1.64941 0.14648,0.47461 0.14551,0.96582 0.14551,1.71094 v 4.34375 h -1.30762 l 9.8e-4,-3.94629 c -0.002,-0.98437 0,-1.55371 -0.30762,-2.01465 -0.32324,-0.45898 -0.84082,-0.63379 -1.33984,-0.63281 -0.82325,-9.8e-4 -1.71192,0.44336 -1.96973,1.59961 -0.0977,0.41309 -0.0977,0.80957 -0.0977,1.36426 l 0.002,3.63183 -1.30957,-0.002 9.7e-4,-11.20801 z"
           id="path4430" />
        <path
           style="fill:#f2f2f2"
           inkscape:connector-curvature="0"
           d="m 487.58255,184.02679 v 1.45801 h -1.24316 l 9.7e-4,-1.45898 1.24219,9.7e-4 z m 0,3.72559 v 7.46582 h -1.24316 v -7.4668 l 1.24316,9.8e-4 z"
           id="path4432" />
        <path
           style="fill:#f2f2f2"
           inkscape:connector-curvature="0"
           d="m 491.03568,187.7514 v 1.09375 c 0.71093,-1.21972 1.92089,-1.33203 2.37304,-1.33203 0.96875,9.8e-4 2.13086,0.47656 2.50293,1.71387 0.12988,0.44336 0.12891,0.90234 0.12793,1.53613 l 0.002,4.45606 -1.27734,-9.8e-4 9.8e-4,-4.24902 c -9.8e-4,-0.76074 -9.8e-4,-0.98145 -0.0791,-1.23535 -0.22657,-0.71387 -0.9375,-1.03125 -1.63184,-1.03125 -0.56543,0 -1.04981,0.1748 -1.4541,0.57128 -0.56348,0.55469 -0.56446,1.125 -0.56446,1.68067 v 4.26465 l -1.29101,9.7e-4 v -7.46875 h 1.29102 z"
           id="path4434" />
        <path
           style="fill:#f2f2f2"
           inkscape:connector-curvature="0"
           d="m 505.00638,192.91937 c -0.17774,0.50781 -0.85547,2.52149 -3.43848,2.52149 -2.25977,0 -3.72852,-1.50586 -3.72754,-4.02735 -0.002,-2.82226 2.06446,-3.89941 3.67969,-3.89941 1.40332,-9.8e-4 2.88965,0.76074 3.3418,2.64746 0.14453,0.63379 0.14551,1.20508 0.14453,1.52148 l -5.7793,9.8e-4 c -0.0322,1.25195 0.64551,2.80566 2.45313,2.80469 1.14746,9.8e-4 1.79297,-0.74414 2.01953,-1.74317 l 1.30664,0.17383 z m -1.4043,-2.13965 c -0.11328,-1.96582 -1.54883,-2.29882 -2.17969,-2.29882 -1.09668,9.7e-4 -2.01758,0.79199 -2.16406,2.29785 l 4.34375,9.7e-4 z"
           id="path4436" />
        <path
           style="fill:#f2f2f2"
           inkscape:connector-curvature="0"
           d="m 513.54687,190.46332 v 4.75586 h -1.48388 l -9.8e-4,-11.19239 4.22901,-0.002 c 1.58203,0.0166 2.51953,0.0166 3.40625,0.68359 0.83984,0.61817 1.19531,1.55372 1.19531,2.58399 0,2.61523 -2.14844,2.97949 -2.69727,3.07519 l 3.19727,4.85254 -1.8086,-0.002 -3.09961,-4.75488 h -2.9375 z m 0,-1.23633 h 3.01954 c 0.48437,0 0.93554,0 1.38671,-0.11133 1.05079,-0.2539 1.42188,-0.99902 1.42188,-1.80761 0,-0.28614 -0.0332,-1.0459 -0.67969,-1.57032 -0.59765,-0.49023 -1.33984,-0.47558 -2.21094,-0.47558 h -2.9375 v 3.96484 z"
           id="path4438" />
        <path
           style="fill:#f2f2f2"
           inkscape:connector-curvature="0"
           d="m 529.4082,192.91937 c -0.17578,0.50781 -0.85547,2.52051 -3.4375,2.52149 -2.25976,0 -3.72851,-1.50684 -3.72851,-4.02735 0,-2.82129 2.0664,-3.90039 3.67968,-3.89941 1.4043,-9.8e-4 2.88868,0.75976 3.3418,2.64746 0.14649,0.63379 0.14453,1.2041 0.14649,1.52148 h -5.78125 c -0.0312,1.25293 0.64648,2.80664 2.45312,2.80567 1.14649,0 1.79297,-0.74414 2.02149,-1.74317 l 1.30468,0.17383 z m -1.40234,-2.13965 c -0.11524,-1.96582 -1.55078,-2.29882 -2.18164,-2.29882 -1.09766,0 -2.01758,0.79296 -2.16211,2.29882 h 4.34375 z"
           id="path4440" />
        <path
           style="fill:#f2f2f2"
           inkscape:connector-curvature="0"
           d="m 535.82031,190.74847 -0.002,-0.1914 c 0.002,-0.77637 0.002,-2.07617 -1.70899,-2.07617 -1.63085,0 -1.63085,1.17285 -1.63085,1.57031 l -1.35547,-0.0801 c 0.0312,-0.27051 0.0644,-0.68164 0.30664,-1.12598 0.45117,-0.82324 1.33984,-1.33203 2.63086,-1.33105 0.70898,0 1.63086,0.17383 2.22656,0.63379 0.83984,0.66699 0.83984,1.52246 0.82422,2.52148 v 2.42578 c 0.0156,0.71192 0.0176,1.07715 0.54883,1.07715 0.1621,0 0.30664,-0.0312 0.41992,-0.0801 l 0.002,1.0957 c -0.21094,0.0459 -0.4375,0.12598 -0.80859,0.12598 -0.59961,0 -1.19532,-0.19043 -1.32422,-1.10937 -0.38672,0.39648 -1.16211,1.21972 -2.61328,1.22168 -1.48633,0 -2.58399,-0.87305 -2.58594,-2.14161 0.002,-0.39648 0.11328,-0.79199 0.33984,-1.125 0.4375,-0.63378 1.24219,-1.14257 3.51953,-1.3164 l 1.21094,-0.0947 z m -1.98633,1.15723 c -1.41992,0.30078 -1.66211,0.82422 -1.66211,1.34766 0,0.60254 0.48438,1.10937 1.4375,1.10937 0.88868,0 1.64649,-0.34863 2.01758,-1.12598 0.19336,-0.4121 0.20899,-0.58691 0.20899,-1.68066 -0.5,0.0801 -1.17774,0.17383 -2.00196,0.34961 z"
           id="path4442" />
        <path
           style="fill:#f2f2f2"
           inkscape:connector-curvature="0"
           d="m 546.39062,184.00922 -0.002,11.20996 h -1.29101 v -0.9668 c -0.30664,0.36426 -1.01758,1.18848 -2.61524,1.18848 -2.19531,0 -3.48633,-1.61719 -3.48633,-3.99512 0,-2.91699 1.9375,-3.93262 3.47071,-3.93262 0.5,9.8e-4 1.75976,0.11231 2.63086,1.22168 v -4.72461 l 1.29296,-9.7e-4 z m -6.02148,7.48437 c 0,1.53809 0.72461,2.82129 2.37305,2.82129 1.46875,0 2.38867,-1.07812 2.38867,-2.86914 0,-2.10938 -1.30859,-2.77442 -2.3418,-2.79102 -0.98437,-0.0146 -2.41992,0.57227 -2.41992,2.83887 z"
           id="path4444" />
        <path
           style="fill:#f2f2f2"
           inkscape:connector-curvature="0"
           d="m 553.19922,190.74847 v -0.19043 c 0,-0.77636 0,-2.07714 -1.71289,-2.07714 -1.62891,0 -1.62891,1.17285 -1.62891,1.57031 l -1.35547,-0.0801 c 0.0312,-0.26953 0.0645,-0.68164 0.30469,-1.12598 0.45313,-0.82422 1.3418,-1.33105 2.63281,-1.33105 0.71094,0 1.62891,0.17285 2.22656,0.63379 0.83985,0.66601 0.83985,1.52246 0.82422,2.52148 v 2.42578 c 0.0156,0.71192 0.0176,1.07715 0.54883,1.07715 0.16211,9.8e-4 0.30664,-0.0322 0.41992,-0.0791 v 1.09375 c -0.20898,0.0469 -0.4375,0.12695 -0.80664,0.12695 -0.59765,0 -1.19531,-0.19043 -1.32422,-1.10937 -0.38672,0.39648 -1.16406,1.21972 -2.61523,1.22168 -1.48633,-0.002 -2.58203,-0.87403 -2.58203,-2.14063 -0.002,-0.39844 0.11133,-0.79297 0.33789,-1.12695 0.4375,-0.63379 1.24219,-1.1416 3.51953,-1.31543 l 1.21094,-0.0947 z m -1.98633,1.15723 c -1.41992,0.29981 -1.66211,0.82422 -1.66406,1.34766 0.002,0.60254 0.48633,1.10937 1.43945,1.10937 0.88672,0 1.64649,-0.34863 2.01563,-1.12598 0.19531,-0.4121 0.21094,-0.58593 0.21094,-1.68164 -0.50001,0.0811 -1.17969,0.17579 -2.00196,0.35059 z"
           id="path4446" />
        <path
           style="fill:#f2f2f2"
           inkscape:connector-curvature="0"
           d="m 558.19531,184.00922 v 4.75683 c 0.24219,-0.30078 0.95313,-1.25195 2.61524,-1.25293 1.64648,9.8e-4 3.5039,1.09473 3.5039,3.98047 0,1.88574 -0.91992,3.94629 -3.51953,3.94629 -1.5332,9.8e-4 -2.27539,-0.76074 -2.59961,-1.1875 v 0.96777 l -1.29101,-0.002 v -11.20898 h 1.29101 z m 2.37305,10.37011 c 1.74414,-9.7e-4 2.375,-1.53711 2.375,-2.94922 0,-1.83886 -1.08203,-2.75879 -2.35742,-2.75879 -1.04883,0 -2.40625,0.61817 -2.42188,2.82227 0,2.07617 1.19336,2.88574 2.4043,2.88574 z"
           id="path4448" />
        <path
           style="fill:#f2f2f2"
           inkscape:connector-curvature="0"
           d="m 567.39258,184.02679 v 11.19141 h -1.24219 v -11.19141 h 1.24219 z"
           id="path4450" />
        <path
           style="fill:#f2f2f2"
           inkscape:connector-curvature="0"
           d="m 576.37891,192.91937 c -0.17774,0.50781 -0.85547,2.52051 -3.43946,2.52051 -2.26172,0 -3.72851,-1.50586 -3.72851,-4.02637 0,-2.82128 2.0664,-3.89941 3.68164,-3.90039 1.40234,9.8e-4 2.88867,0.76172 3.33984,2.64844 0.14649,0.63477 0.14649,1.20508 0.14649,1.52246 l -5.78125,-9.8e-4 c -0.0312,1.25293 0.64648,2.80567 2.45507,2.80567 1.14649,9.8e-4 1.79102,-0.74414 2.01758,-1.74317 l 1.3086,0.17383 z m -1.40625,-2.13965 c -0.11329,-1.96582 -1.54688,-2.29785 -2.17774,-2.29882 -1.09765,9.7e-4 -2.01758,0.79296 -2.16406,2.29882 h 4.3418 z"
           id="path4452" />
      </g>
    </g>
  </g>
</svg>
