<?xml version="1.0" encoding="UTF-8" standalone="no"?>
<!-- Created with Inkscape (http://www.inkscape.org/) -->
<svg
   xmlns:dc="http://purl.org/dc/elements/1.1/"
   xmlns:cc="http://web.resource.org/cc/"
   xmlns:rdf="http://www.w3.org/1999/02/22-rdf-syntax-ns#"
   xmlns:svg="http://www.w3.org/2000/svg"
   xmlns="http://www.w3.org/2000/svg"
   xmlns:xlink="http://www.w3.org/1999/xlink"
   xmlns:sodipodi="http://sodipodi.sourceforge.net/DTD/sodipodi-0.dtd"
   xmlns:inkscape="http://www.inkscape.org/namespaces/inkscape"
   width="31"
   height="31"
   id="svg10331"
   sodipodi:version="0.32"
   inkscape:version="0.45+devel"
   version="1.0"
   sodipodi:docname="sc-norms.svg"
   inkscape:output_extension="org.inkscape.output.svg.inkscape"
   inkscape:export-filename="/mnt/hgfs/Bov/Documents/Work/2007/cc/projects/zero/sc-norms.png"
   inkscape:export-xdpi="90"
   inkscape:export-ydpi="90">
  <defs
     id="defs10333">
    <linearGradient
       id="linearGradient9830">
      <stop
         id="stop9832"
         offset="0"
         style="stop-color:#446298;stop-opacity:1;" />
      <stop
         style="stop-color:#30528d;stop-opacity:1;"
         offset="0.5"
         id="stop9834" />
      <stop
         id="stop9836"
         offset="1"
         style="stop-color:#163872;stop-opacity:1;" />
    </linearGradient>
    <radialGradient
       inkscape:collect="always"
       xlink:href="#linearGradient9830"
       id="radialGradient10320"
       gradientUnits="userSpaceOnUse"
       gradientTransform="matrix(1.6764263,0,0,1.7602561,-813.90292,-1776.825)"
       cx="1643.054"
       cy="1394.5376"
       fx="1643.054"
       fy="1394.5376"
       r="14.84765" />
  </defs>
  <sodipodi:namedview
     id="base"
     pagecolor="#ffffff"
     bordercolor="#666666"
     borderopacity="1.0"
     gridtolerance="10000"
     guidetolerance="10"
     objecttolerance="10"
     inkscape:pageopacity="0.0"
     inkscape:pageshadow="2"
     inkscape:zoom="10.12963"
     inkscape:cx="9"
     inkscape:cy="14.602377"
     inkscape:document-units="px"
     inkscape:current-layer="layer1"
     inkscape:window-width="641"
     inkscape:window-height="620"
     inkscape:window-x="234"
     inkscape:window-y="201" />
  <metadata
     id="metadata10336">
    <rdf:RDF>
      <cc:Work
         rdf:about="">
        <dc:format>image/svg+xml</dc:format>
        <dc:type
           rdf:resource="http://purl.org/dc/dcmitype/StillImage" />
        <dc:title>CC0 - Science Commons Norms - Button</dc:title>
        <dc:creator>
          <cc:Agent>
            <dc:title>Alex Roberts</dc:title>
          </cc:Agent>
        </dc:creator>
        <dc:publisher>
          <cc:Agent>
            <dc:title>Creative Commons</dc:title>
          </cc:Agent>
        </dc:publisher>
        <dc:identifier>http://creativecommons.org/</dc:identifier>
      </cc:Work>
    </rdf:RDF>
  </metadata>
  <g
     inkscape:label="Layer 1"
     inkscape:groupmode="layer"
     id="layer1">
    <g
       id="g9528"
       transform="matrix(1,0,0,0.999294,-1925,-650.51851)">
      <path
         style="fill:url(#radialGradient10320);fill-opacity:1"
         d="M 1927.3965,651.353 L 1953.6096,651.5017 C 1954.8185,651.5017 1955.8984,651.3282 1955.8984,653.8361 L 1955.7925,681.4079 L 1925.2133,681.4079 L 1925.2133,653.7336 C 1925.2133,652.4969 1925.337,651.353 1927.3965,651.353 z"
         nodetypes="ccccccc"
         id="path8513"
         sodipodi:nodetypes="ccccccc" />
      <path
         style="fill:#000000;fill-opacity:1;stroke:none;stroke-width:3;stroke-linecap:round;stroke-linejoin:round;stroke-miterlimit:4;stroke-dashoffset:0;stroke-opacity:1"
         d="M 1925.2416,673.14844 L 1955.5831,673.14844 L 1955.5831,681.598 L 1925.2416,681.598 L 1925.2416,673.14844 z"
         id="rect8515"
         sodipodi:nodetypes="ccccc" />
      <path
         sodipodi:nodetypes="cccccccccccccc"
         id="path8517"
         d="M 1954.2846,650.9781 L 1926.7151,650.9781 C 1925.7696,650.9781 1925,651.7224 1925,652.6373 L 1925,682 L 1956,682 L 1956,652.6373 C 1956,651.7224 1955.2304,650.9781 1954.2846,650.9781 z M 1926.7151,651.7278 L 1954.2846,651.7278 C 1954.8034,651.7278 1955.2252,652.1356 1955.2252,652.6373 C 1955.2252,652.6373 1955.2252,672.7731 1955.2252,681.2145 L 1925.7748,681.2145 C 1925.7748,672.7731 1925.7748,652.6373 1925.7748,652.6373 C 1925.7748,652.1356 1926.1966,651.7278 1926.7151,651.7278 z" />
      <g
         id="g8519"
         transform="matrix(0.2363101,0,0,0.2363101,1609.2753,548.28463)">
        <path
           sodipodi:type="arc"
           style="opacity:1;fill:#ffffff;fill-opacity:1;stroke:none;stroke-width:3;stroke-linecap:round;stroke-linejoin:round;stroke-miterlimit:4;stroke-dasharray:none;stroke-dashoffset:0;stroke-opacity:1"
           id="path8521"
           sodipodi:cx="1401"
           sodipodi:cy="477.36218"
           sodipodi:rx="31"
           sodipodi:ry="31"
           d="M 1432,477.36218 A 31,31 0 1 1 1370,477.36218 A 31,31 0 1 1 1432,477.36218 z"
           transform="matrix(1.016129,0,0,1.016129,-22.096774,-4.19939)" />
        <path
           style="font-size:43.65325546px;font-style:normal;font-variant:normal;font-weight:normal;font-stretch:normal;text-align:start;line-height:125%;writing-mode:lr-tb;text-anchor:start;fill:#000000;fill-opacity:1;stroke:none;stroke-width:1px;stroke-linecap:butt;stroke-linejoin:miter;stroke-opacity:1;font-family:'Gothic725 Blk BT'"
           d="M 1379.4945,488.57591 C 1380.4548,490.14743 1381.5898,491.1078 1382.9867,491.84991 C 1385.213,493.02854 1387.7013,493.37777 1389.8403,493.37777 C 1392.9397,493.37777 1396.0827,492.67932 1398.178,490.93319 C 1399.5313,489.7982 1400.7536,488.00842 1400.7536,485.1273 C 1400.7536,482.90099 1399.9678,481.32947 1397.9161,480.15083 C 1397.4796,479.88891 1396.1263,479.19046 1392.2849,478.3174 L 1391.1499,478.05548 C 1390.2768,477.83721 1389.622,477.7499 1388.7489,477.40068 C 1388.1814,477.18241 1387.5266,476.87684 1387.5266,475.82916 C 1387.5266,475.39263 1387.7013,474.78148 1388.2688,474.34495 C 1388.8799,473.86476 1389.622,473.77746 1390.2332,473.77746 C 1391.5864,473.77746 1392.9397,474.17034 1394.031,474.73783 C 1394.8604,475.17436 1395.6462,475.74185 1396.17,476.17839 L 1399.9242,472.11863 C 1398.6146,471.07096 1397.2177,470.2852 1395.9081,469.80501 C 1394.4239,469.23752 1392.765,468.88829 1390.7133,468.88829 C 1387.1774,468.88829 1384.8201,469.89232 1383.2486,471.28922 C 1381.6335,472.72978 1380.8914,474.65052 1380.8914,476.96415 C 1380.8914,479.01585 1381.5898,480.45641 1383.4669,481.6787 C 1384.6892,482.46445 1386.0424,482.85733 1387.4393,483.25021 C 1389.0109,483.68675 1389.491,483.7304 1390.626,483.94867 C 1391.8047,484.16693 1392.3285,484.29789 1392.7214,484.4725 C 1393.6381,484.86538 1393.9873,485.60749 1393.9873,486.13133 C 1393.9873,486.65517 1393.7691,487.26631 1393.1579,487.65919 C 1392.6777,488.00842 1391.8483,488.31399 1390.4951,488.31399 C 1387.8322,488.31399 1385.344,487.22266 1383.5542,485.04 L 1379.4945,488.57591 M 1423.636,474.43226 C 1422.8939,473.03535 1421.8026,471.72575 1420.493,470.76538 C 1418.4413,469.28117 1416.1276,468.93195 1414.1633,468.93195 C 1409.7106,468.93195 1407.0041,470.67808 1405.5199,472.20594 C 1403.5119,474.25764 1402.2023,477.40068 1402.2023,481.46043 C 1402.2023,486.08767 1403.9484,489.09975 1405.8691,490.75857 C 1407.8335,492.5047 1410.671,493.37777 1413.5085,493.37777 C 1415.5165,493.37777 1417.9174,492.89758 1420.1001,491.41337 C 1421.7153,490.27839 1422.9812,488.70687 1423.8106,487.22266 L 1418.8778,484.51616 C 1418.6159,485.21461 1418.0484,486.26229 1417.1753,486.96074 C 1416.1277,487.8338 1414.9054,488.00842 1414.0323,488.00842 C 1412.1116,488.00842 1410.9766,487.04805 1410.2781,486.08768 C 1409.7979,485.38922 1408.9685,483.94866 1408.9685,481.15486 C 1408.9685,478.14279 1409.9289,476.48396 1410.8456,475.61089 C 1411.6314,474.86879 1412.81,474.3013 1414.2942,474.3013 C 1415.4728,474.3013 1416.3896,474.69418 1417.0007,475.13071 C 1417.6555,475.61089 1418.3103,476.48396 1418.7032,477.31337 L 1423.636,474.43226"
           id="text8523" />
        <path
           style="font-size:111.57081604px;font-style:normal;font-weight:normal;writing-mode:lr-tb;fill:#000000;fill-opacity:1;stroke:none;stroke-width:1px;stroke-linecap:butt;stroke-linejoin:miter;stroke-opacity:1;font-family:'CC Icons'"
           d="M 1401.5759,444.61796 C 1391.4246,444.61805 1382.8693,448.15139 1375.8985,455.25296 C 1372.3694,458.782 1369.6738,462.80982 1367.8006,467.29726 C 1365.9704,471.74125 1365.0583,476.37649 1365.0583,481.21246 C 1365.0583,486.09211 1365.9704,490.7273 1367.8006,495.12761 C 1369.6303,499.528 1372.2848,503.48922 1375.7704,507.01826 C 1379.299,510.5037 1383.2604,513.19152 1387.6609,515.06498 C 1392.1048,516.89484 1396.74,517.80696 1401.5759,517.80696 C 1406.4119,517.80696 1411.1138,516.86154 1415.6447,514.98804 C 1420.176,513.11463 1424.2192,510.41908 1427.7918,506.89009 C 1431.2335,503.53538 1433.8395,499.68943 1435.5823,495.33254 C 1437.3686,490.93223 1438.2473,486.22284 1438.2473,481.21246 C 1438.2473,476.24567 1437.3686,471.54396 1435.5823,467.14361 C 1433.7956,462.69971 1431.1823,458.77175 1427.7406,455.32981 C 1420.5516,448.18464 1411.8142,444.61805 1401.5759,444.61796 z M 1401.7296,451.20401 C 1410.0078,451.20401 1417.0664,454.13779 1422.9485,460.01944 C 1425.78,462.8514 1427.9505,466.0901 1429.4317,469.70619 C 1430.9133,473.32236 1431.6612,477.16071 1431.6612,481.21246 C 1431.6612,489.6211 1428.784,496.59811 1423.0766,502.17489 C 1420.1138,505.05034 1416.7855,507.26157 1413.0822,508.78646 C 1409.4223,510.31135 1405.6507,511.06717 1401.7296,511.06717 C 1397.7651,511.06717 1393.9675,510.31904 1390.3515,508.83774 C 1386.7355,507.31284 1383.4891,505.13488 1380.6137,502.30297 C 1377.7383,499.42751 1375.5193,496.18116 1373.9508,492.56489 C 1372.4257,488.90531 1371.6444,485.1336 1371.6444,481.21246 C 1371.6444,477.24776 1372.4257,473.45054 1373.9508,469.83436 C 1375.5193,466.17463 1377.7383,462.88735 1380.6137,459.96816 C 1386.3211,454.13006 1393.3646,451.20401 1401.7296,451.20401 z"
           id="path8527" />
      </g>
      <path
         style="font-size:6.64905882px;font-style:normal;font-variant:normal;font-weight:bold;font-stretch:normal;text-align:start;line-height:125%;writing-mode:lr-tb;text-anchor:start;fill:#ffffff;fill-opacity:1;stroke:none;stroke-width:1px;stroke-linecap:butt;stroke-linejoin:miter;stroke-opacity:1;font-family:'Bitstream Vera Sans'"
         d="M 1927.1743,675.0587 L 1928.5703,675.0587 L 1930.3332,678.38323 L 1930.3332,675.0587 L 1931.5183,675.0587 L 1931.5183,679.90589 L 1930.1222,679.90589 L 1928.3593,676.58136 L 1928.3593,679.90589 L 1927.1743,679.90589 L 1927.1743,675.0587 M 1934.9597,675.87684 C 1934.5787,675.87685 1934.2833,676.01753 1934.0733,676.2989 C 1933.8634,676.58028 1933.7584,676.97636 1933.7584,677.48716 C 1933.7584,677.9958 1933.8634,678.3908 1934.0733,678.67217 C 1934.2833,678.95355 1934.5787,679.09423 1934.9597,679.09423 C 1935.3428,679.09423 1935.6393,678.95355 1935.8492,678.67217 C 1936.0592,678.3908 1936.1642,677.9958 1936.1642,677.48716 C 1936.1642,676.97636 1936.0592,676.58028 1935.8492,676.2989 C 1935.6393,676.01753 1935.3428,675.87685 1934.9597,675.87684 M 1934.9597,674.97104 C 1935.7389,674.97104 1936.3492,675.19398 1936.7908,675.63984 C 1937.2323,676.08571 1937.4531,676.70148 1937.4531,677.48716 C 1937.4531,678.27068 1937.2323,678.88537 1936.7908,679.33124 C 1936.3492,679.7771 1935.7389,680.00004 1934.9597,680.00004 C 1934.1826,680.00004 1933.5723,679.7771 1933.1286,679.33124 C 1932.687,678.88537 1932.4663,678.27068 1932.4663,677.48716 C 1932.4663,676.70148 1932.687,676.08571 1933.1286,675.63984 C 1933.5723,675.19398 1934.1826,674.97104 1934.9597,674.97104 M 1940.1705,677.20795 C 1940.4324,677.20796 1940.6196,677.15926 1940.7321,677.06186 C 1940.8469,676.96446 1940.9042,676.80429 1940.9042,676.58136 C 1940.9042,676.36059 1940.8469,676.20259 1940.7321,676.10735 C 1940.6196,676.01212 1940.4324,675.9645 1940.1705,675.9645 L 1939.6445,675.9645 L 1939.6445,677.20795 L 1940.1705,677.20795 M 1939.6445,678.07155 L 1939.6445,679.90589 L 1938.3946,679.90589 L 1938.3946,675.0587 L 1940.3036,675.0587 C 1940.9421,675.0587 1941.4096,675.16584 1941.7061,675.38011 C 1942.0048,675.59439 1942.1542,675.93312 1942.1542,676.3963 C 1942.1542,676.71664 1942.0762,676.97961 1941.9204,677.18523 C 1941.7667,677.39085 1941.5341,677.54236 1941.2224,677.63975 C 1941.3934,677.67871 1941.546,677.76745 1941.6802,677.90597 C 1941.8165,678.04233 1941.9539,678.25012 1942.0925,678.52932 L 1942.771,679.90589 L 1941.4399,679.90589 L 1940.849,678.70139 C 1940.73,678.45898 1940.6088,678.2934 1940.4854,678.20466 C 1940.3642,678.11592 1940.2019,678.07155 1939.9984,678.07155 L 1939.6445,678.07155 M 1943.5112,675.0587 L 1945.1021,675.0587 L 1946.2059,677.65274 L 1947.3163,675.0587 L 1948.9039,675.0587 L 1948.9039,679.90589 L 1947.7221,679.90589 L 1947.7221,676.36059 L 1946.6053,678.97411 L 1945.8131,678.97411 L 1944.6963,676.36059 L 1944.6963,679.90589 L 1943.5112,679.90589 L 1943.5112,675.0587 M 1953.5076,675.21129 L 1953.5076,676.23722 C 1953.2413,676.11818 1952.9816,676.02835 1952.7284,675.96775 C 1952.4751,675.90715 1952.236,675.87685 1952.0109,675.87684 C 1951.7122,675.87685 1951.4914,675.91797 1951.3486,676.00021 C 1951.2057,676.08246 1951.1343,676.21016 1951.1343,676.38331 C 1951.1343,676.51318 1951.1819,676.61491 1951.2771,676.6885 C 1951.3745,676.75992 1951.5498,676.82161 1951.8031,676.87355 L 1952.3355,676.98069 C 1952.8745,677.08891 1953.2576,677.25341 1953.4848,677.47417 C 1953.7121,677.69495 1953.8257,678.00879 1953.8257,678.41569 C 1953.8257,678.9503 1953.6666,679.34855 1953.3485,679.61044 C 1953.0325,679.87017 1952.5487,680.00004 1951.8972,680.00004 C 1951.5899,680.00004 1951.2815,679.97082 1950.972,679.91238 C 1950.6624,679.85394 1950.3529,679.76736 1950.0434,679.65265 L 1950.0434,678.5975 C 1950.3529,678.762 1950.6516,678.88645 1950.9395,678.97086 C 1951.2295,679.05311 1951.5087,679.09423 1951.7771,679.09423 C 1952.0498,679.09423 1952.2587,679.04878 1952.4037,678.95788 C 1952.5487,678.86697 1952.6212,678.73711 1952.6212,678.56828 C 1952.6212,678.41678 1952.5714,678.2999 1952.4719,678.21765 C 1952.3745,678.1354 1952.1786,678.06181 1951.8842,677.99688 L 1951.4005,677.88974 C 1950.9157,677.78585 1950.5607,677.62027 1950.3356,677.39301 C 1950.1127,677.16575 1950.0012,676.85949 1950.0012,676.47422 C 1950.0012,675.99156 1950.1571,675.62036 1950.4687,675.36063 C 1950.7804,675.10091 1951.2284,674.97104 1951.8128,674.97104 C 1952.079,674.97104 1952.3528,674.9916 1952.6342,675.03272 C 1952.9156,675.07169 1953.2067,675.13121 1953.5076,675.21129"
         id="text8529" />
    </g>
  </g>
</svg>
