<?xml version="1.0" encoding="UTF-8" standalone="no"?>
<!-- Created with Inkscape (http://www.inkscape.org/) -->

<svg
   xmlns:dc="http://purl.org/dc/elements/1.1/"
   xmlns:cc="http://creativecommons.org/ns#"
   xmlns:rdf="http://www.w3.org/1999/02/22-rdf-syntax-ns#"
   xmlns:svg="http://www.w3.org/2000/svg"
   xmlns="http://www.w3.org/2000/svg"
   xmlns:sodipodi="http://sodipodi.sourceforge.net/DTD/sodipodi-0.dtd"
   xmlns:inkscape="http://www.inkscape.org/namespaces/inkscape"
   width="171.30321"
   height="178.75586"
   id="svg5172"
   version="1.1"
   inkscape:version="0.48.0 r9654"
   sodipodi:docname="human.svg"
   inkscape:export-filename="/home/nyergler/p/e/license-layers/img/human.png"
   inkscape:export-xdpi="90.879997"
   inkscape:export-ydpi="90.879997">
  <defs
     id="defs5174">
    <linearGradient
       id="path75580_8_"
       gradientUnits="userSpaceOnUse"
       x1="-593.24396"
       y1="-212.38745"
       x2="-593.24396"
       y2="-809.87488"
       gradientTransform="matrix(0.317831,0.103063,0.102997,-0.318514,135.34033,913.30511)">
      <stop
         offset="0"
         style="stop-color:#98C807"
         id="stop4459" />
      <stop
         offset="1"
         style="stop-color:#5D7A04"
         id="stop4461" />
    </linearGradient>
  </defs>
  <sodipodi:namedview
     id="base"
     pagecolor="#ffffff"
     bordercolor="#666666"
     borderopacity="1.0"
     inkscape:pageopacity="0.0"
     inkscape:pageshadow="2"
     inkscape:zoom="0.35"
     inkscape:cx="85.651605"
     inkscape:cy="89.377924"
     inkscape:document-units="px"
     inkscape:current-layer="layer1"
     showgrid="false"
     fit-margin-top="0"
     fit-margin-left="0"
     fit-margin-right="0"
     fit-margin-bottom="0"
     inkscape:window-width="515"
     inkscape:window-height="459"
     inkscape:window-x="4"
     inkscape:window-y="73"
     inkscape:window-maximized="0" />
  <metadata
     id="metadata5177">
    <rdf:RDF>
      <cc:Work
         rdf:about="">
        <dc:format>image/svg+xml</dc:format>
        <dc:type
           rdf:resource="http://purl.org/dc/dcmitype/StillImage" />
        <dc:title></dc:title>
      </cc:Work>
    </rdf:RDF>
  </metadata>
  <g
     inkscape:label="Layer 1"
     inkscape:groupmode="layer"
     id="layer1"
     transform="translate(-289.3484,-442.98426)">
    <g
       transform="translate(-137.46785,171.01612)"
       id="g4454">
      <g
         id="g75574_3_"
         transform="matrix(0.9826883,-0.1545343,0.1545343,0.9826883,444.23578,-664.84077)">
        <g
           id="g75578_3_">
          <linearGradient
             id="linearGradient5140"
             gradientUnits="userSpaceOnUse"
             x1="-593.24396"
             y1="-212.38745"
             x2="-593.24396"
             y2="-809.87488"
             gradientTransform="matrix(0.317831,0.103063,0.102997,-0.318514,135.34033,913.30511)">
            <stop
               offset="0"
               style="stop-color:#98C807"
               id="stop5142" />
            <stop
               offset="1"
               style="stop-color:#5D7A04"
               id="stop5144" />
          </linearGradient>
          <path
             style="fill:url(#path75580_8_)"
             inkscape:connector-curvature="0"
             id="path75580_3_"
             nodetypes="ccccccc"
             d="m -160.07132,928.14008 c -1.83951,-0.29029 -3.54996,0.93042 -3.83649,2.73968 l -27.57306,174.03014 169.878575,26.9103 27.578186,-174.03132 c 0.28241,-1.80798 -0.966187,-3.49896 -2.802673,-3.78974 L -160.07132,928.14008 z" />
          <polygon
             style="fill:#ffffff"
             id="rect75582_3_"
             points="-18.822876,1114.2721 -188.70273,1087.3636 -168.06757,957.1488 1.807434,984.05646 " />
        </g>
        <g
           id="g75584_3_"
           transform="matrix(2.1424816,0,0,2.1424816,-735.63382,-432.10572)">
          <g
             id="g75586_3_"
             transform="matrix(0.624995,0,0,0.624995,356.3859,679.94613)">
            <g
               id="g75588_3_"
               transform="translate(-23.9521,-89.72962)">
              <path
                 style="fill:#393839"
                 inkscape:connector-curvature="0"
                 id="path75590_3_"
                 d="m -41.597992,78.552124 c -5.110779,-0.809631 -9.709076,0.256592 -13.800446,3.196274 -4.20636,3.047791 -6.700745,7.045303 -7.485199,11.996033 -0.784485,4.950684 0.35788,9.494189 3.424194,13.629949 3.064728,4.1363 7.10611,6.60199 12.12262,7.39752 5.077667,0.80296 9.762787,-0.29634 14.055389,-3.2979 4.048187,-2.85373 6.473572,-6.81836 7.276855,-11.88855 0.80304,-5.068756 -0.302338,-9.639801 -3.315918,-13.704956 -3.014952,-4.066102 -7.108916,-6.508881 -12.277495,-7.32837 z m -0.470734,3.267136 c 4.185516,0.661896 7.510284,2.67276 9.975403,6.034927 2.500305,3.336548 3.421173,7.070374 2.766479,11.205109 -0.659546,4.165844 -2.652832,7.393184 -5.982544,9.680114 -3.515259,2.47588 -7.332367,3.38812 -11.45816,2.73338 -4.12326,-0.65213 -7.446625,-2.68132 -9.965332,-6.08014 -2.52005,-3.39973 -3.461517,-7.106395 -2.828766,-11.120631 0.637421,-4.015717 2.700195,-7.278854 6.188171,-9.788742 3.353486,-2.438294 7.120912,-3.327149 11.304749,-2.664017 z" />
              <path
                 style="fill:#393839"
                 inkscape:connector-curvature="0"
                 id="path75592_3_"
                 d="m -52.234009,92.811234 c 1.453888,-4.440948 5.109894,-6.35817 9.199677,-5.710571 5.888367,0.933426 8.81012,5.695847 7.9245,11.289658 -0.864197,5.457689 -5.354523,9.093859 -11.103973,8.183059 -3.9552,-0.6257 -7.117096,-3.57796 -7.018188,-8.369292 l 4.644348,0.736298 c -0.246765,2.456284 1.225891,3.568804 3.527283,3.932174 2.618378,0.41474 4.701752,-1.70523 5.282471,-5.36029 0.607391,-3.834152 -0.543365,-6.096817 -3.306458,-6.535065 -2.021759,-0.320145 -3.881927,0.125763 -4.644043,2.546295 l 1.352142,0.208176 -4.225861,3.011307 -3.087708,-4.169601 1.45581,0.237852 z" />
            </g>
          </g>
          <g
             id="g75594_3_"
             transform="translate(-34.843494,503.01293)">
            <g
               id="g75596_3_">
              <path
                 style="fill:#393839"
                 inkscape:connector-curvature="0"
                 id="path75598_3_"
                 d="m 323.79254,174.48428 c 0.064,-0.40368 -0.21802,-0.78431 -0.62903,-0.84895 l -4.71399,-0.7464 c -0.41,-0.065 -0.79544,0.20934 -0.85986,0.61296 l -0.73352,4.62924 1.31519,0.20823 -0.86881,5.48324 3.57181,0.56493 0.86859,-5.48235 1.3161,0.20836 0.73352,-4.62926 0,0 z" />
              <ellipse
                 style="fill:#393839"
                 sodipodi:ry="3.415041"
                 sodipodi:rx="3.4785171"
                 sodipodi:cy="171.06882"
                 sodipodi:cx="321.15424"
                 id="circle75600_3_"
                 cx="321.15424"
                 cy="171.06882"
                 rx="3.4785171"
                 ry="3.415041"
                 d="m 324.63275,171.06882 c 0,1.88607 -1.55738,3.41504 -3.47851,3.41504 -1.92114,0 -3.47852,-1.52897 -3.47852,-3.41504 0,-1.88608 1.55738,-3.41504 3.47852,-3.41504 1.92113,0 3.47851,1.52896 3.47851,3.41504 z" />
            </g>
            <path
               style="fill:#393839"
               inkscape:connector-curvature="0"
               id="path75602_3_"
               d="m 322.02551,165.4751 c -3.19186,-0.50612 -6.06885,0.15931 -8.62622,1.99841 -2.62771,1.90273 -4.18732,4.40201 -4.67749,7.49573 -0.49011,3.0928 0.22321,5.93373 2.13867,8.5189 1.91822,2.58513 4.44406,4.12616 7.57761,4.62264 3.17429,0.5029 6.10239,-0.18372 8.78488,-2.06021 2.5307,-1.78438 4.04633,-4.2609 4.54852,-7.43065 0.50202,-3.16885 -0.18823,-6.02379 -2.07257,-8.56462 -1.88421,-2.54221 -4.44207,-4.06833 -7.6734,-4.5802 z m -0.29397,2.04059 c 2.61569,0.41503 4.69357,1.67227 6.23343,3.77301 1.56396,2.08322 2.13928,4.41819 1.73004,7.00283 -0.41217,2.60318 -1.65796,4.62026 -3.73908,6.05001 -2.19702,1.54742 -4.58435,2.11638 -7.16119,1.70791 -2.57697,-0.40803 -4.65277,-1.6756 -6.22815,-3.80095 -1.57654,-2.12414 -2.16583,-4.44094 -1.7674,-6.95118 0.39667,-2.50775 1.68628,-4.5467 3.86716,-6.11522 2.09555,-1.52443 4.45068,-2.08035 7.06519,-1.66641 z" />
          </g>
        </g>
      </g>
      <g
         id="g4475">
        <path
           style="fill:#333333"
           inkscape:connector-curvature="0"
           d="m 463.65189,421.59857 -5.75879,9.8e-4 v 4.75683 h -1.41016 l 9.8e-4,-10.41406 h 1.40918 v 4.43457 l 5.75976,-9.7e-4 9.8e-4,-4.4336 h 1.42481 v 10.41406 h -1.42578 l -9.8e-4,-4.75781 z"
           id="path4477" />
        <path
           style="fill:#333333"
           inkscape:connector-curvature="0"
           d="m 467.62552,419.41986 h 1.18555 v 3.96191 c -9.8e-4,0.72168 -9.8e-4,0.7793 0.0293,0.95606 0.1211,0.90039 0.85352,1.09082 1.40821,1.09082 0.73632,0 1.29199,-0.29492 1.59179,-0.66211 0.43555,-0.50098 0.43555,-1.0459 0.4336,-1.87012 l 0.002,-3.47656 h 1.18457 l -9.8e-4,6.93653 h -1.18359 v -1.05957 c -0.22461,0.29492 -0.94629,1.2373 -2.41504,1.2373 -0.99121,-9.8e-4 -1.5,-0.44141 -1.72559,-0.70703 -0.50976,-0.57617 -0.51074,-1.17871 -0.50976,-2.3418 v -4.06543 z"
           id="path4479" />
        <path
           style="fill:#333333"
           inkscape:connector-curvature="0"
           d="m 476.90579,419.41986 v 0.92773 c 0.85449,-0.98925 1.58887,-1.15039 2.11426,-1.14941 1.15625,0 1.58984,0.73633 1.9209,1.28223 0.61426,-0.60547 1.30371,-1.28321 2.35449,-1.28223 0.87109,0 1.65039,0.53125 1.93555,1.20801 0.17773,0.42676 0.19336,0.89844 0.19433,1.5918 l 9.8e-4,4.34472 h -1.16992 v -4.0664 c -9.8e-4,-0.63379 0,-0.86817 -0.0605,-1.10352 -0.22558,-0.7959 -0.97656,-0.86914 -1.23047,-0.86914 -0.49609,0 -1.03418,0.23437 -1.37988,0.58887 -0.38965,0.39648 -0.41895,0.72363 -0.41895,1.56152 v 3.88867 h -1.16992 l -9.7e-4,-4.46191 c -9.8e-4,-0.2666 -9.8e-4,-0.75391 -0.27051,-1.10547 -0.16602,-0.22266 -0.50977,-0.47168 -1.03516,-0.47168 -0.44922,-9.8e-4 -0.94433,0.19043 -1.31836,0.51562 -0.46679,0.41114 -0.46679,0.79493 -0.46679,1.41309 v 4.12402 h -1.16993 l 9.8e-4,-6.93652 h 1.16992 z"
           id="path4481" />
        <path
           style="fill:#333333"
           inkscape:connector-curvature="0"
           d="m 491.97024,422.20306 v -0.17675 c -9.7e-4,-0.72168 9.8e-4,-1.92872 -1.59082,-1.92872 -1.51367,0 -1.51367,1.08985 -1.51464,1.45704 l -1.25879,-0.0723 c 0.0293,-0.25098 0.0596,-0.63379 0.28515,-1.0459 0.41993,-0.7666 1.24414,-1.23828 2.44336,-1.23926 0.66016,0 1.51563,0.16211 2.07129,0.59082 0.78027,0.61817 0.7793,1.41309 0.76465,2.34278 v 2.25195 c 0.0147,0.66309 0.0156,1.00098 0.50977,1.00098 0.15039,0 0.28515,-0.0283 0.39062,-0.0723 v 1.0166 c -0.19531,0.0439 -0.40625,0.11719 -0.75195,0.11719 -0.55371,0 -1.10938,-0.17676 -1.22852,-1.03027 -0.35937,0.36816 -1.08008,1.13476 -2.42969,1.13476 -1.37988,-9.7e-4 -2.40039,-0.81152 -2.40039,-1.98925 0,-0.36915 0.10547,-0.73731 0.31543,-1.0459 0.40528,-0.58985 1.1543,-1.06055 3.27051,-1.22266 l 1.12402,-0.0889 z m -1.84472,1.0752 c -1.32031,0.28125 -1.54688,0.76562 -1.54492,1.25195 0,0.55957 0.44922,1.03125 1.33398,1.03125 0.82617,9.8e-4 1.53125,-0.32324 1.87598,-1.0459 0.17969,-0.38281 0.19433,-0.54589 0.19433,-1.5625 -0.46484,0.0752 -1.09472,0.16309 -1.85937,0.3252 z"
           id="path4483" />
        <path
           style="fill:#333333"
           inkscape:connector-curvature="0"
           d="m 496.84915,419.41986 v 1.0166 c 0.66016,-1.13379 1.78613,-1.23828 2.2041,-1.23926 0.90039,0 1.98047,0.44141 2.32618,1.59082 0.12011,0.41309 0.12011,0.84082 0.12011,1.42969 l -9.7e-4,4.13867 h -1.1836 l -9.8e-4,-3.94628 c 9.8e-4,-0.70801 9.8e-4,-0.91407 -0.0752,-1.14942 -0.20898,-0.66211 -0.87109,-0.95703 -1.51563,-0.95703 -0.52539,0 -0.97363,0.16113 -1.3496,0.52832 -0.52344,0.5166 -0.52442,1.04883 -0.52442,1.5625 v 3.96289 l -1.20019,-0.002 9.7e-4,-6.93555 h 1.19922 z"
           id="path4485" />
        <path
           style="fill:#333333"
           inkscape:connector-curvature="0"
           d="m 509.85403,421.93744 v 4.41894 h -1.3789 l -9.8e-4,-10.39843 3.92966,-9.8e-4 c 1.47119,0.0166 2.34033,0.0166 3.16455,0.63477 0.78125,0.57421 1.10937,1.44335 1.11133,2.40039 -0.002,2.43066 -1.9961,2.76855 -2.50782,2.85742 l 2.97071,4.50683 h -1.67969 l -2.88086,-4.41894 h -2.728 z m 9.8e-4,-1.14844 2.80515,-9.8e-4 c 0.44921,0 0.86914,0 1.28711,-0.10253 0.97656,-0.23438 1.32226,-0.92676 1.32226,-1.67872 0,-0.26464 -0.0312,-0.97168 -0.63086,-1.458 -0.55469,-0.45703 -1.24414,-0.44239 -2.05469,-0.44336 h -2.72995 l 9.8e-4,3.68359 z"
           id="path4487" />
        <path
           style="fill:#333333"
           inkscape:connector-curvature="0"
           d="m 524.84961,424.22162 c -0.16406,0.4707 -0.79492,2.3418 -3.19531,2.3418 -2.09961,0 -3.46485,-1.39844 -3.46289,-3.74024 0,-2.62305 1.91796,-3.625 3.41796,-3.625 1.30469,0 2.68555,0.70801 3.10547,2.45996 0.13477,0.58985 0.13477,1.11914 0.13477,1.41406 h -5.36914 c -0.0312,1.16407 0.59765,2.60547 2.2793,2.60645 1.06445,0 1.66406,-0.69238 1.875,-1.61914 l 1.21484,0.16211 z m -1.30469,-1.98926 c -0.10547,-1.82617 -1.43945,-2.13477 -2.02539,-2.13477 -1.01953,0 -1.875,0.73536 -2.00976,2.13477 h 4.03515 z"
           id="path4489" />
        <path
           style="fill:#333333"
           inkscape:connector-curvature="0"
           d="m 531.03906,422.20404 v -0.17773 c 0,-0.72168 0,-1.92871 -1.58984,-1.92871 -1.51563,0 -1.51563,1.08984 -1.51563,1.45703 l -1.26172,-0.0732 c 0.0312,-0.25 0.0625,-0.63281 0.28711,-1.04492 0.41797,-0.7666 1.24414,-1.23828 2.44336,-1.23828 0.66016,-9.7e-4 1.51563,0.16114 2.07031,0.58789 0.7793,0.62012 0.78125,1.41504 0.76563,2.34473 v 2.25195 c 0.0156,0.66407 0.0156,1.00098 0.51172,1.00196 0.14844,-9.8e-4 0.2832,-0.0293 0.38672,-0.0752 v 1.0166 c -0.19336,0.0459 -0.4043,0.11914 -0.75,0.11914 -0.55469,0 -1.10743,-0.17578 -1.22852,-1.03027 -0.35937,0.36816 -1.07812,1.13379 -2.43164,1.13379 -1.37695,0 -2.39844,-0.81055 -2.39844,-1.98828 0,-0.36914 0.10547,-0.73731 0.31641,-1.0459 0.40429,-0.58984 1.15429,-1.06055 3.26953,-1.22265 l 1.125,-0.0879 z m -1.8457,1.0752 c -1.32031,0.28027 -1.54492,0.76464 -1.54492,1.25097 0,0.5586 0.44922,1.03223 1.33398,1.03125 0.82617,9.8e-4 1.53125,-0.32324 1.87695,-1.0459 0.17969,-0.38281 0.19336,-0.54492 0.19336,-1.56152 -0.46484,0.0742 -1.09375,0.16211 -1.85937,0.3252 z"
           id="path4491" />
        <path
           style="fill:#333333"
           inkscape:connector-curvature="0"
           d="m 541.10156,415.94134 0.002,10.41504 h -1.19921 v -0.89648 c -0.28516,0.33691 -0.94532,1.10449 -2.43165,1.10352 -2.03906,0 -3.23828,-1.50293 -3.23828,-3.7129 0,-2.70996 1.79883,-3.65234 3.22461,-3.65234 0.46485,0 1.63477,0.10449 2.44531,1.13379 v -4.38965 l 1.19727,-9.8e-4 z m -5.59179,6.95606 c 0,1.42676 0.67382,2.62109 2.20312,2.62109 1.36523,0 2.2207,-1.00195 2.2207,-2.66797 0,-1.95898 -1.21484,-2.57617 -2.17382,-2.59179 -0.91602,-0.0147 -2.25,0.53027 -2.25,2.63867 z"
           id="path4493" />
        <path
           style="fill:#333333"
           inkscape:connector-curvature="0"
           d="m 547.66602,422.20404 v -0.17773 c 0,-0.72168 0,-1.92871 -1.58985,-1.92871 -1.51562,0 -1.51562,1.08984 -1.51562,1.45703 l -1.25781,-0.0732 c 0.0273,-0.25097 0.0586,-0.63281 0.2832,-1.04589 0.41992,-0.76563 1.24414,-1.23828 2.44336,-1.23828 0.66015,0 1.51562,0.16113 2.07031,0.58984 0.78125,0.61914 0.78125,1.41406 0.76562,2.34375 v 2.25195 c 0.0156,0.66407 0.0156,1.00098 0.51172,1.00098 0.15039,0.002 0.28516,-0.0273 0.38867,-0.0723 v 1.01661 c -0.19531,0.0439 -0.40625,0.11718 -0.75195,0.11718 -0.55273,0 -1.10742,-0.17578 -1.22851,-1.03027 -0.35938,0.36816 -1.07813,1.13379 -2.42774,1.13379 -1.38281,0 -2.40234,-0.81055 -2.40039,-1.98828 0,-0.36817 0.10352,-0.73731 0.31445,-1.0459 0.4043,-0.58984 1.1543,-1.06055 3.26954,-1.22266 l 1.125,-0.0879 z m -1.84571,1.0752 c -1.32031,0.28027 -1.54492,0.76464 -1.54492,1.25097 0,0.55957 0.44922,1.03125 1.33398,1.03223 0.82618,0 1.53125,-0.32422 1.87696,-1.04688 0.17968,-0.38378 0.19531,-0.54492 0.19531,-1.56152 -0.4668,0.0742 -1.0957,0.16113 -1.86133,0.3252 z"
           id="path4495" />
        <path
           style="fill:#333333"
           inkscape:connector-curvature="0"
           d="m 552.54883,415.94232 v 4.41992 c 0.22461,-0.28125 0.88476,-1.16406 2.42969,-1.16406 1.52929,0 3.2539,1.01563 3.2539,3.69727 0,1.75293 -0.85547,3.66797 -3.26953,3.66797 -1.42578,0 -2.11523,-0.70801 -2.41406,-1.10352 v 0.89648 h -1.20117 l 0.002,-10.41406 h 1.19922 z m 2.20508,9.63477 c 1.61914,0 2.20507,-1.42871 2.20507,-2.74024 0,-1.70801 -1.00586,-2.5625 -2.1914,-2.5625 -0.97461,0 -2.23438,0.57422 -2.25,2.6211 0,1.93066 1.11133,2.68164 2.23633,2.68164 z"
           id="path4497" />
        <path
           style="fill:#333333"
           inkscape:connector-curvature="0"
           d="m 561.33008,415.95795 v 10.39843 h -1.1543 v -10.39941 l 1.1543,9.8e-4 z"
           id="path4499" />
        <path
           style="fill:#333333"
           inkscape:connector-curvature="0"
           d="m 569.91797,424.22162 c -0.16602,0.4707 -0.79492,2.3418 -3.19531,2.3418 -2.09961,0 -3.46485,-1.39844 -3.46485,-3.74219 0,-2.62012 1.91993,-3.62305 3.41993,-3.62305 1.30468,-9.8e-4 2.68554,0.70801 3.10546,2.45996 0.13477,0.58887 0.13477,1.11817 0.13477,1.41309 l -5.36914,9.7e-4 c -0.0312,1.16407 0.59961,2.60645 2.2793,2.60645 1.06445,-9.8e-4 1.66601,-0.69141 1.875,-1.61816 l 1.21484,0.16113 z m -1.30469,-1.98926 c -0.10547,-1.82617 -1.43945,-2.13574 -2.02539,-2.13477 -1.01953,0 -1.875,0.73438 -2.00977,2.13477 h 4.03516 z"
           id="path4501" />
      </g>
    </g>
  </g>
</svg>
